<?xml version="1.0" encoding="utf-8"?>
<!-- Generator: Adobe Illustrator 19.2.1, SVG Export Plug-In . SVG Version: 6.00 Build 0)  -->
<svg version="1.1" id="Layer_1" xmlns="http://www.w3.org/2000/svg" xmlns:xlink="http://www.w3.org/1999/xlink" x="0px" y="0px"
	 viewBox="0 0 142 142" style="enable-background:new 0 0 142 142;" xml:space="preserve">
<style type="text/css">
	.st0{fill:#34495E;}
	.st1{fill:#0477BD;}
	.st2{fill:#FFFFFF;}
</style>
<g>
	<path class="st0" d="M142,71c0,0.1,0,0.3,0,0.4c-0.1,22.6-10.8,42.6-27.3,55.5c-12,9.4-27.2,15.1-43.7,15.1c-2.7,0-5.4-0.2-8-0.5
		c-35.4-4-63-34.1-63-70.5C0,31.8,31.8,0,71,0c35.6,0,65,26.1,70.2,60.2C141.7,63.7,142,67.3,142,71z"/>
	<path class="st1" d="M96.6,57c-0.8,0-1.6,0-2.4,0.1c-3-11.6-13.5-19.9-25.9-19.9c-14.7,0-26.7,11.7-26.7,26.5c0,0.2,0,0.3,0,0.3h0
		c-9.9,0-18,8.5-18,18.4c0,9.9,8.1,18.2,18,18.2l8.8,0.1l43.6,0l4.3,0c5.1,0,9.9-2.3,13.1-5.8c4.5-4.1,7.1-10.1,7.1-16.2
		C118.4,66.8,108.6,57,96.6,57z"/>
	<g>
		<path class="st2" d="M87.9,68.4c0,1-0.4,2-1.1,2.7L68.2,89.8c-1.5,1.5-3.9,1.5-5.4,0l-9.6-9.6c-1.5-1.5-1.5-3.9,0-5.4
			c1.5-1.5,3.9-1.5,5.4,0l6.9,6.9l15.9-15.9c1.5-1.5,3.9-1.5,5.4,0C87.6,66.5,87.9,67.5,87.9,68.4z"/>
	</g>
</g>
</svg>
