<?xml version="1.0" encoding="utf-8"?>
<!-- Generator: Adobe Illustrator 19.2.1, SVG Export Plug-In . SVG Version: 6.00 Build 0)  -->
<svg version="1.1" id="Layer_1" xmlns="http://www.w3.org/2000/svg" xmlns:xlink="http://www.w3.org/1999/xlink" x="0px" y="0px"
	 viewBox="0 0 224 119" style="enable-background:new 0 0 224 119;" xml:space="preserve">
<style type="text/css">
	.st0{fill:#2C3E50;}
	.st1{fill:#34495E;}
	.st2{fill:#0077BF;}
	.st3{fill:#0088CC;}
	.st4{fill:#B3B3B3;}
	.st5{fill:#009FDD;}
	.st6{fill:#4D4D4D;}
	.st7{fill:#00B7EF;}
	.st8{fill:#FFFFFF;}
</style>
<g>
	<path id="XMLID_4675_" class="st0" d="M118.4,103h-1.2c0,0-7.3-1.8-7.3-22.3c0-6-32.4-6.1-32.4,0.4c0,19.7-7.5,21.9-7.5,21.9h-1
		c-0.9,0-1.8,1.1-1.8,2v0.8c0,0.9,0.9,1.2,1.8,1.2h49.6c0.9,0,1.6-0.3,1.6-1.2V105C120,104.1,119.3,103,118.4,103z"/>
	<path id="XMLID_4674_" class="st1" d="M151.1,0H35.9C33.6,0,32,2,32,4.2v69.7v10.7c0,2.2,1.6,5.4,3.9,5.4h115.2
		c2.2,0,3.9-3.2,3.9-5.4V73.9V4.2C155,2,153.3,0,151.1,0z"/>
	<rect id="XMLID_4673_" x="38" y="8" class="st2" width="111" height="74"/>
	<path id="XMLID_4672_" class="st1" d="M212,114h-94V53.9c0-1.3,0.4-2.9,1.7-2.9h89.8c1.3,0,2.6,1.7,2.6,2.9V114z"/>
	<rect id="XMLID_4671_" x="121" y="56" class="st3" width="87" height="53"/>
	<path id="XMLID_4670_" class="st0" d="M224,116v-1.8c0-0.6-0.9-1.2-1.5-1.2H107.2c-0.6,0-1.2,0.5-1.2,1.2v1.8h0c0,0,2.8,3,4.5,3
		h108.5c1.7,0,4.5-3,4.5-3H224z"/>
	<path id="XMLID_4669_" class="st4" d="M175.1,115h-20.5c-1.7,0-1.7-2-1.7-2h23.9C176.8,113,176.8,115,175.1,115z"/>
	<path id="XMLID_4668_" class="st1" d="M70,114.5c0,2.4-1.9,4.5-4.3,4.5H21.1c-2.4,0-4.1-2.2-4.1-4.5V52.8c0-2.4,1.7-4.8,4.1-4.8
		h44.6c2.4,0,4.3,2.4,4.3,4.8V114.5z"/>
	<rect id="XMLID_4667_" x="21" y="53" class="st5" width="45" height="54"/>
	<circle id="XMLID_4666_" class="st4" cx="43.4" cy="113.2" r="2.2"/>
	<path id="XMLID_4665_" class="st6" d="M31,115.2c0,2-1.9,3.8-4,3.8H3.9c-2,0-3.9-1.8-3.9-3.8v-50c0-2,1.8-4.1,3.9-4.1H27
		c2,0,4,2.1,4,4.1V115.2z"/>
	<path id="XMLID_4664_" class="st1" d="M31,115.2c0,2-1.9,3.8-4,3.8H3.9c-2,0-3.9-1.8-3.9-3.8v-50c0-2,1.8-4.1,3.9-4.1H27
		c2,0,4,2.1,4,4.1V115.2z"/>
	<rect id="XMLID_4663_" x="2" y="68" class="st7" width="27" height="42"/>
	<circle id="XMLID_4662_" class="st4" cx="15.4" cy="114.7" r="1.8"/>
	<path id="XMLID_4661_" class="st4" d="M21,65.5c0,0.3-0.2,0.5-0.5,0.5h-11C9.2,66,9,65.8,9,65.5l0,0C9,65.2,9.2,65,9.5,65h11
		C20.8,65,21,65.2,21,65.5L21,65.5z"/>
	<g id="XMLID_4657_">
		
			<image style="overflow:visible;opacity:0.2;" width="92" height="73" xlink:href="8AFC0904717965D3.png"  transform="matrix(0.24 0 0 0.24 4.5618 82.1635)">
		</image>
		<g>
			<path class="st8" d="M19.4,87.7c-0.1,0-0.2,0-0.4,0c-0.5-1.8-2-3-3.9-3c-2.2,0-4,1.8-4,4c0,0,0,0.1,0,0.1h0
				c-1.5,0-2.7,1.3-2.7,2.8c0,1.5,1.2,2.7,2.7,2.7l1.3,0l6.6,0l0.7,0c0.8,0,1.5-0.3,2-0.9c0.7-0.6,1.1-1.5,1.1-2.4
				C22.7,89.2,21.2,87.7,19.4,87.7z M14.4,92.2c-0.5,0-0.9-0.2-1.3-0.4l0.4-0.7c0.2,0.2,0.6,0.3,0.8,0.3c0.2,0,0.4-0.1,0.4-0.3
				c0-0.5-1.5-0.4-1.5-1.5c0-0.6,0.5-1.1,1.1-1.1c0.6,0,0.9,0.2,1.1,0.3l-0.3,0.8c-0.2-0.1-0.4-0.2-0.6-0.2c-0.2,0-0.3,0.1-0.3,0.2
				c0,0.3,1.4,0.4,1.4,1.5C15.7,91.7,15.3,92.2,14.4,92.2z M17.3,90.6l-0.4-0.6l-0.4,0.6l-0.7,0l0.7-1.1L16,88.5l0.6,0l0.3,0.5
				l0.3-0.5l0.6,0l-0.6,0.9l0.7,1.1L17.3,90.6z"/>
		</g>
	</g>
	<g id="XMLID_4653_">
		
			<image style="overflow:visible;opacity:0.2;" width="135" height="106" xlink:href="8AFC0904717965D1.png"  transform="matrix(0.24 0 0 0.24 27.1318 69.8209)">
		</image>
		<g>
			<path class="st8" d="M49,78c-0.2,0-0.4,0-0.5,0c-0.7-2.6-3-4.4-5.7-4.4c-3.3,0-5.9,2.6-5.9,5.9c0,0,0,0.1,0,0.1h0
				c-2.2,0-4,1.9-4,4.1c0,2.2,1.8,4,4,4l1.9,0l9.7,0l1,0c1.1,0,2.2-0.5,2.9-1.3c1-0.9,1.6-2.2,1.6-3.6C53.8,80.1,51.7,78,49,78z
				 M41.6,84.6c-0.8,0-1.4-0.3-1.9-0.6l0.6-1.1c0.3,0.2,0.8,0.5,1.2,0.5c0.4,0,0.6-0.1,0.6-0.5c0-0.7-2.1-0.6-2.1-2.2
				c0-0.9,0.7-1.6,1.6-1.6c0.9,0,1.3,0.3,1.6,0.4l-0.4,1.1c-0.2-0.2-0.6-0.4-0.9-0.4c-0.2,0-0.4,0.2-0.4,0.3c0,0.5,2.1,0.6,2.1,2.2
				C43.5,83.8,43,84.6,41.6,84.6z M45.9,82.2l-0.6-0.9l-0.6,0.9l-1,0l1.1-1.6l-0.9-1.4l0.9,0l0.5,0.7l0.5-0.7l0.9,0l-0.9,1.4
				l1.1,1.6L45.9,82.2z"/>
		</g>
	</g>
	<g id="XMLID_4647_">
		
			<image style="overflow:visible;opacity:0.2;" width="178" height="140" xlink:href="8AFC0904717965D7.png"  transform="matrix(0.24 0 0 0.24 143.0806 68.7196)">
		</image>
		<g>
			<path class="st8" d="M171.9,79.5c-0.2,0-0.5,0-0.7,0c-0.9-3.4-4-5.8-7.6-5.8c-4.3,0-7.8,3.4-7.8,7.7c0,0.1,0,0.1,0,0.1h0
				c-2.9,0-5.3,2.5-5.2,5.4c0,2.9,2.4,5.3,5.3,5.3l2.6,0l12.7,0l1.3,0c1.5,0,2.9-0.7,3.8-1.7c1.3-1.2,2.1-2.9,2.1-4.7
				C178.3,82.3,175.4,79.5,171.9,79.5z M162.2,88.2c-1,0-1.8-0.3-2.5-0.7l0.7-1.4c0.4,0.3,1.1,0.6,1.5,0.6c0.5,0,0.8-0.2,0.8-0.6
				c0-0.9-2.8-0.8-2.8-2.9c0-1.2,0.9-2.1,2.1-2.1c1.2,0,1.8,0.4,2.1,0.5l-0.5,1.5c-0.3-0.2-0.8-0.5-1.2-0.5c-0.3,0-0.6,0.2-0.6,0.5
				c0,0.7,2.8,0.7,2.8,2.9C164.7,87.1,164,88.2,162.2,88.2z M167.8,85l-0.8-1.2l-0.8,1.3l-1.3,0l1.4-2.1l-1.2-1.8l1.3,0l0.6,1l0.6-1
				l1.3,0l-1.2,1.8l1.4,2.1L167.8,85z"/>
		</g>
	</g>
	<g id="XMLID_4639_">
		
			<image style="overflow:visible;opacity:0.2;" width="246" height="194" xlink:href="8AFC0904717965D0.png"  transform="matrix(0.24 0 0 0.24 63.7059 25.2775)">
		</image>
		<g>
			<path class="st8" d="M103.6,40.1c-0.3,0-0.7,0-1,0.1c-1.2-4.7-5.5-8-10.5-8c-6,0-10.8,4.7-10.8,10.7c0,0.1,0,0.1,0,0.1h0
				c-4,0-7.3,3.4-7.3,7.5c0,4,3.3,7.3,7.3,7.3l3.5,0l17.6,0l1.7,0c2,0,4-0.9,5.3-2.3c1.8-1.7,2.9-4.1,2.9-6.5
				C112.4,44.1,108.4,40.1,103.6,40.1z M90.1,52.2c-1.4,0-2.5-0.5-3.4-1l1-2c0.6,0.4,1.5,0.9,2.1,0.9c0.7,0,1.1-0.3,1.1-0.8
				c0-1.3-3.9-1.1-3.9-4c0-1.6,1.3-2.9,2.9-2.9c1.6,0,2.4,0.5,2.9,0.7l-0.7,2.1c-0.4-0.3-1.1-0.7-1.7-0.7c-0.4,0-0.8,0.3-0.8,0.6
				c0,0.9,3.9,1,3.9,3.9C93.5,50.8,92.6,52.2,90.1,52.2z M97.9,47.8L96.8,46l-1.1,1.7l-1.7,0l2-2.9l-1.7-2.5l1.7,0l0.9,1.3l0.9-1.3
				l1.7,0l-1.7,2.5l2,2.9L97.9,47.8z"/>
		</g>
	</g>
</g>
</svg>
