<?xml version="1.0" encoding="utf-8"?>
<!-- Generator: Adobe Illustrator 19.2.1, SVG Export Plug-In . SVG Version: 6.00 Build 0)  -->
<svg version="1.1" id="Layer_1" xmlns="http://www.w3.org/2000/svg" xmlns:xlink="http://www.w3.org/1999/xlink" x="0px" y="0px"
	 viewBox="0 0 142 142" style="enable-background:new 0 0 142 142;" xml:space="preserve">
<style type="text/css">
	.st0{fill:#34495E;}
	.st1{fill:#0477BD;}
	.st2{fill:none;}
	.st3{fill:#FFFFFF;}
	.st4{opacity:0.6;fill:#FFFFFF;}
	.st5{opacity:0.1;fill:#FFFFFF;}
	.st6{opacity:0.4;fill:#FFFFFF;}
	.st7{opacity:0.7;fill:#FFFFFF;}
	.st8{opacity:0.5;fill:#FFFFFF;}
	.st9{opacity:0.3;fill:#FFFFFF;}
</style>
<g>
	<path class="st0" d="M142,71c0,0.1,0,0.3,0,0.4c-0.1,22.6-10.8,42.6-27.3,55.5c-12,9.4-27.2,15.1-43.7,15.1c-2.7,0-5.4-0.2-8-0.5
		c-35.4-4-63-34.1-63-70.5C0,31.8,31.8,0,71,0c35.6,0,65,26.1,70.2,60.2C141.7,63.7,142,67.3,142,71z"/>
	<path class="st1" d="M96.6,57c-0.8,0-1.6,0-2.4,0.1c-3-11.6-13.5-19.9-25.9-19.9c-14.7,0-26.7,11.7-26.7,26.5c0,0.2,0,0.3,0,0.3h0
		c-9.9,0-18,8.5-18,18.4c0,9.9,8.1,18.2,18,18.2l8.8,0.1l43.6,0l4.3,0c5.1,0,9.9-2.3,13.1-5.8c4.5-4.1,7.1-10.1,7.1-16.2
		C118.4,66.8,108.6,57,96.6,57z"/>
	<g>
		<path class="st2" d="M74.8,65.8c-0.2-0.2-0.4-0.5-0.6-0.6c-0.5-0.4-1-0.7-1.7-0.9v0.6c0,0.3-0.3,0.6-0.6,0.6h-1.7
			c-0.2,0-0.3-0.1-0.4-0.2c-0.1-0.1-0.2-0.2-0.2-0.4v-0.7c0,0,0,0,0,0c-0.2,0-0.4,0.1-0.5,0.2c0,0-0.1,0-0.1,0
			c-0.2,0.1-0.4,0.2-0.5,0.2c0,0,0,0,0,0c-0.2,0.1-0.3,0.2-0.5,0.3c0,0-0.1,0-0.1,0.1c-0.2,0.1-0.3,0.3-0.4,0.4c0,0,0,0,0,0
			c-0.1,0.1-0.2,0.3-0.4,0.5c0,0,0,0.1-0.1,0.1c-0.1,0.2-0.2,0.4-0.3,0.6c-0.2,0.6-0.4,1.2-0.4,2v4.7h9.2v-4.7c0-0.8-0.1-1.4-0.4-2
			C75.1,66.3,74.9,66.1,74.8,65.8C74.8,65.8,74.8,65.8,74.8,65.8z"/>
		<path class="st3" d="M70.8,65.5h-0.6c-0.2,0-0.3-0.1-0.4-0.2c0.1,0.1,0.2,0.2,0.4,0.2H72c0.3,0,0.6-0.3,0.6-0.6
			c0,0.3-0.3,0.6-0.6,0.6h-0.6h-0.2H71H70.8z"/>
		<path class="st3" d="M72.5,59.8c0-0.3-0.3-0.5-0.6-0.5h0C72.2,59.3,72.5,59.5,72.5,59.8z"/>
		<path class="st3" d="M79.8,73.3h-1.4v-4.7c0-4.2-2.8-6.7-5.9-7.3v-0.1h-1.1v2.9h1.1v-1.4c0.1,0,0.2,0,0.2,0c0,0,0.1,0,0.1,0
			c0.3,0.1,0.5,0.2,0.7,0.3c0,0,0,0,0.1,0c0.2,0.1,0.5,0.2,0.7,0.4c0,0,0.1,0.1,0.1,0.1c0.2,0.2,0.4,0.3,0.6,0.5c0,0,0,0,0.1,0.1
			c0.2,0.2,0.4,0.4,0.5,0.6c0,0,0,0.1,0.1,0.1c0.2,0.2,0.3,0.5,0.5,0.7c0,0,0,0.1,0.1,0.1c0.1,0.3,0.3,0.5,0.3,0.9c0,0,0,0,0,0h-1.5
			c0,0,0,0,0,0c0.3,0.6,0.4,1.3,0.4,2v4.7h-9.2v-4.7c0-0.8,0.1-1.4,0.4-2c0,0,0,0,0,0h-1.5c0,0,0,0,0,0c0.1-0.3,0.2-0.6,0.3-0.8
			c0,0,0-0.1,0.1-0.1c0.1-0.3,0.3-0.5,0.5-0.7c0,0,0-0.1,0.1-0.1c0.2-0.2,0.3-0.4,0.5-0.6c0,0,0,0,0.1-0.1c0.2-0.2,0.4-0.3,0.6-0.5
			c0,0,0.1-0.1,0.1-0.1c0.2-0.1,0.5-0.3,0.7-0.4c0,0,0,0,0.1,0c0.2-0.1,0.5-0.2,0.7-0.3c0,0,0.1,0,0.1,0c0.2,0,0.3-0.1,0.5-0.1v1.4
			h1.1v-2.9h-1.1v0.1c-3.2,0.5-6.1,3-6.1,7.3v4.7h-1.4c-0.8,0-1.5,0.7-1.5,1.5v0c0,0,0,0,0,0V75c0,0,0,0,0,0h0v3.4c0.7,0,1.3,0,2,0
			v2.2h3.2v-2.2H66h0.2c1.7,0,1.7,2.5,0,2.5c1.7,0,1.7,2.5,0,2.5c1.7,0,1.7,2.5,0,2.5c1.7,0,1.7,2.5,0,2.5H66h-0.1h-0.5
			c-0.9,0-1.8,0-2.8,0c-0.7,0-1.3,0-2,0v1.1c0,0.8,0.7,1.5,1.5,1.5h0h0.5H79h0.8h0c0.1,0,0.2,0,0.3,0c0.6-0.1,1-0.6,1.1-1.1
			c0-0.1,0-0.2,0-0.3V75v0h0c0,0,0,0,0,0v0v-0.2v0C81.3,74,80.6,73.3,79.8,73.3z M63.6,75.4c-0.4-0.1-0.6-0.3-0.6-0.5
			s0.2-0.4,0.6-0.5V75.4z M65,75.6C65,75.6,65,75.6,65,75.6C65,75.6,65,75.6,65,75.6C65,75.6,65,75.6,65,75.6z M66.4,75.4v-1
			c0.4,0.1,0.6,0.3,0.6,0.5S66.8,75.3,66.4,75.4z M75.6,75.4c-0.4-0.1-0.6-0.3-0.6-0.5s0.2-0.4,0.6-0.5V75.4z M77,75.6
			C77,75.6,77,75.6,77,75.6C77,75.6,77,75.6,77,75.6L77,75.6z M78.4,75.4L78.4,75.4c-0.1,0-0.2,0.1-0.3,0.1
			C78.2,75.4,78.3,75.4,78.4,75.4v-1c0.4,0.1,0.6,0.3,0.6,0.5C79.1,75.1,78.8,75.2,78.4,75.4z"/>
		<path class="st3" d="M65,75.6C65,75.6,65,75.6,65,75.6C65,75.6,65,75.6,65,75.6C65,75.6,65,75.6,65,75.6z"/>
		<path class="st4" d="M65,75.6C65,75.6,65,75.6,65,75.6C65,75.6,65,75.6,65,75.6C65,75.6,65,75.6,65,75.6z"/>
		<path class="st3" d="M62.9,74.9c0,0.2,0.2,0.4,0.6,0.5v-1C63.2,74.5,62.9,74.7,62.9,74.9z"/>
		<path class="st4" d="M62.9,74.9c0,0.2,0.2,0.4,0.6,0.5v-1C63.2,74.5,62.9,74.7,62.9,74.9z"/>
		<path class="st3" d="M66.4,74.3v1c0.4-0.1,0.6-0.3,0.6-0.5S66.8,74.5,66.4,74.3z"/>
		<path class="st4" d="M66.4,74.3v1c0.4-0.1,0.6-0.3,0.6-0.5S66.8,74.5,66.4,74.3z"/>
		<path class="st3" d="M77,75.6L77,75.6C77,75.6,77,75.6,77,75.6C77,75.6,77,75.6,77,75.6z"/>
		<path class="st4" d="M77,75.6L77,75.6C77,75.6,77,75.6,77,75.6C77,75.6,77,75.6,77,75.6z"/>
		<path class="st3" d="M75,74.9c0,0.2,0.2,0.4,0.6,0.5v-1C75.2,74.5,75,74.7,75,74.9z"/>
		<path class="st4" d="M75,74.9c0,0.2,0.2,0.4,0.6,0.5v-1C75.2,74.5,75,74.7,75,74.9z"/>
		<path class="st3" d="M78.4,74.3v1c0.4-0.1,0.6-0.3,0.6-0.5C79.1,74.7,78.8,74.5,78.4,74.3z"/>
		<path class="st4" d="M78.4,74.3v1c0.4-0.1,0.6-0.3,0.6-0.5C79.1,74.7,78.8,74.5,78.4,74.3z"/>
		<path class="st3" d="M78.4,75.4L78.4,75.4c-0.1,0-0.2,0.1-0.3,0.1C78.2,75.4,78.3,75.4,78.4,75.4z"/>
		<path class="st4" d="M78.4,75.4L78.4,75.4c-0.1,0-0.2,0.1-0.3,0.1C78.2,75.4,78.3,75.4,78.4,75.4z"/>
		<polygon class="st3" points="69.7,64.2 69.7,64.2 69.7,64.2 		"/>
		<path class="st3" d="M74.2,65.2c0.2,0.2,0.4,0.4,0.6,0.6c0,0,0,0,0,0c0.2,0.2,0.3,0.5,0.4,0.8c0,0,0,0,0,0h1.5c0,0,0,0,0,0
			c-0.1-0.3-0.2-0.6-0.3-0.9c0,0,0-0.1-0.1-0.1c-0.1-0.3-0.3-0.5-0.5-0.7c0,0,0-0.1-0.1-0.1c-0.2-0.2-0.3-0.4-0.5-0.6
			c0,0,0,0-0.1-0.1c-0.2-0.2-0.4-0.4-0.6-0.5c0,0-0.1-0.1-0.1-0.1c-0.2-0.1-0.5-0.3-0.7-0.4c0,0,0,0-0.1,0c-0.2-0.1-0.5-0.2-0.7-0.3
			c0,0-0.1,0-0.1,0c-0.1,0-0.2,0-0.2,0v1.4v0.1C73.2,64.5,73.7,64.8,74.2,65.2z"/>
		<path class="st5" d="M74.2,65.2c0.2,0.2,0.4,0.4,0.6,0.6c0,0,0,0,0,0c0.2,0.2,0.3,0.5,0.4,0.8c0,0,0,0,0,0h1.5c0,0,0,0,0,0
			c-0.1-0.3-0.2-0.6-0.3-0.9c0,0,0-0.1-0.1-0.1c-0.1-0.3-0.3-0.5-0.5-0.7c0,0,0-0.1-0.1-0.1c-0.2-0.2-0.3-0.4-0.5-0.6
			c0,0,0,0-0.1-0.1c-0.2-0.2-0.4-0.4-0.6-0.5c0,0-0.1-0.1-0.1-0.1c-0.2-0.1-0.5-0.3-0.7-0.4c0,0,0,0-0.1,0c-0.2-0.1-0.5-0.2-0.7-0.3
			c0,0-0.1,0-0.1,0c-0.1,0-0.2,0-0.2,0v1.4v0.1C73.2,64.5,73.7,64.8,74.2,65.2z"/>
		<path class="st3" d="M67.2,65.9c0.1-0.2,0.2-0.3,0.4-0.5c0,0,0,0,0,0c0.1-0.1,0.3-0.3,0.4-0.4c0,0,0.1,0,0.1-0.1
			c0.1-0.1,0.3-0.2,0.5-0.3c0,0,0,0,0,0c0.2-0.1,0.3-0.2,0.5-0.2c0,0,0.1,0,0.1,0c0.2-0.1,0.4-0.1,0.5-0.2c0,0,0,0,0,0v0h0v-1.4
			c-0.2,0-0.3,0.1-0.5,0.1c0,0-0.1,0-0.1,0c-0.3,0.1-0.5,0.2-0.7,0.3c0,0,0,0-0.1,0c-0.2,0.1-0.5,0.2-0.7,0.4c0,0-0.1,0.1-0.1,0.1
			c-0.2,0.2-0.4,0.3-0.6,0.5c0,0,0,0-0.1,0.1c-0.2,0.2-0.4,0.4-0.5,0.6c0,0,0,0.1-0.1,0.1c-0.2,0.2-0.3,0.5-0.5,0.7
			c0,0,0,0.1-0.1,0.1c-0.1,0.3-0.3,0.5-0.3,0.8c0,0,0,0,0,0h1.5c0,0,0,0,0,0C66.9,66.4,67,66.2,67.2,65.9C67.1,66,67.1,66,67.2,65.9
			z"/>
		<path class="st5" d="M67.2,65.9c0.1-0.2,0.2-0.3,0.4-0.5c0,0,0,0,0,0c0.1-0.1,0.3-0.3,0.4-0.4c0,0,0.1,0,0.1-0.1
			c0.1-0.1,0.3-0.2,0.5-0.3c0,0,0,0,0,0c0.2-0.1,0.3-0.2,0.5-0.2c0,0,0.1,0,0.1,0c0.2-0.1,0.4-0.1,0.5-0.2c0,0,0,0,0,0v0h0v-1.4
			c-0.2,0-0.3,0.1-0.5,0.1c0,0-0.1,0-0.1,0c-0.3,0.1-0.5,0.2-0.7,0.3c0,0,0,0-0.1,0c-0.2,0.1-0.5,0.2-0.7,0.4c0,0-0.1,0.1-0.1,0.1
			c-0.2,0.2-0.4,0.3-0.6,0.5c0,0,0,0-0.1,0.1c-0.2,0.2-0.4,0.4-0.5,0.6c0,0,0,0.1-0.1,0.1c-0.2,0.2-0.3,0.5-0.5,0.7
			c0,0,0,0.1-0.1,0.1c-0.1,0.3-0.3,0.5-0.3,0.8c0,0,0,0,0,0h1.5c0,0,0,0,0,0C66.9,66.4,67,66.2,67.2,65.9C67.1,66,67.1,66,67.2,65.9
			z"/>
		<path class="st6" d="M69.7,64.2L69.7,64.2l0,0.7c0,0.2,0.1,0.3,0.2,0.4c-0.1-0.1-0.2-0.2-0.2-0.4V64.2z"/>
		<rect x="69.7" y="64.2" class="st3" width="0" height="0"/>
		<rect x="69.7" y="64.2" class="st5" width="0" height="0"/>
		<rect x="69.7" y="64.2" class="st6" width="0" height="0"/>
		<path class="st3" d="M69.7,64.2L69.7,64.2L69.7,64.2l0,0.7c0,0.2,0.1,0.3,0.2,0.4s0.2,0.2,0.4,0.2h0.6c0,0,0-0.1,0-0.1v-1.2
			L69.7,64.2L69.7,64.2L69.7,64.2z"/>
		<path class="st6" d="M69.7,64.2L69.7,64.2L69.7,64.2l0,0.7c0,0.2,0.1,0.3,0.2,0.4s0.2,0.2,0.4,0.2h0.6c0,0,0-0.1,0-0.1v-1.2
			L69.7,64.2L69.7,64.2L69.7,64.2z"/>
		<path class="st3" d="M71.4,65.5H72c0.3,0,0.6-0.3,0.6-0.6v-0.6v-0.1h-1.1L71.4,65.5C71.4,65.4,71.4,65.5,71.4,65.5z"/>
		<path class="st6" d="M71.4,65.5H72c0.3,0,0.6-0.3,0.6-0.6v-0.6v-0.1h-1.1L71.4,65.5C71.4,65.4,71.4,65.5,71.4,65.5z"/>
		<path class="st7" d="M70.3,59.3L70.3,59.3c-0.3,0-0.6,0.3-0.6,0.6v1.4h0v-1.4C69.7,59.5,70,59.3,70.3,59.3z"/>
		<path class="st3" d="M72.5,61.2v-1.4v0c0,0,0-0.1,0-0.1c0-0.3-0.3-0.5-0.6-0.5h-0.6v2H72.5z"/>
		<path class="st7" d="M72.5,61.2v-1.4v0c0,0,0-0.1,0-0.1c0-0.3-0.3-0.5-0.6-0.5h-0.6v2H72.5z"/>
		<path class="st3" d="M70.8,59.3h-0.6c-0.3,0-0.6,0.3-0.6,0.6v1.4h1.1V59.3z"/>
		<path class="st7" d="M70.8,59.3h-0.6c-0.3,0-0.6,0.3-0.6,0.6v1.4h1.1V59.3z"/>
		<rect x="70.8" y="61.2" class="st3" width="0.2" height="2.9"/>
		<rect x="70.8" y="61.2" class="st6" width="0.2" height="2.9"/>
		<rect x="71.2" y="61.2" class="st3" width="0.2" height="2.9"/>
		<rect x="71.2" y="61.2" class="st6" width="0.2" height="2.9"/>
		<path class="st3" d="M70.8,65.5H71v-1.3h-0.2L70.8,65.5C70.8,65.4,70.8,65.5,70.8,65.5z"/>
		<path class="st6" d="M70.8,65.5H71v-1.3h-0.2L70.8,65.5C70.8,65.4,70.8,65.5,70.8,65.5z"/>
		<path class="st6" d="M70.8,65.5H71v-1.3h-0.2L70.8,65.5C70.8,65.4,70.8,65.5,70.8,65.5z"/>
		<path class="st3" d="M71.2,65.4C71.2,65.4,71.2,65.5,71.2,65.4l0.2,0.1c0,0,0-0.1,0-0.1v-1.2h-0.2V65.4z"/>
		<path class="st6" d="M71.2,65.4C71.2,65.4,71.2,65.5,71.2,65.4l0.2,0.1c0,0,0-0.1,0-0.1v-1.2h-0.2V65.4z"/>
		<path class="st6" d="M71.2,65.4C71.2,65.4,71.2,65.5,71.2,65.4l0.2,0.1c0,0,0-0.1,0-0.1v-1.2h-0.2V65.4z"/>
		<rect x="70.8" y="59.3" class="st3" width="0.2" height="2"/>
		<rect x="70.8" y="59.3" class="st7" width="0.2" height="2"/>
		<rect x="70.8" y="59.3" class="st6" width="0.2" height="2"/>
		<rect x="71.2" y="59.3" class="st3" width="0.2" height="2"/>
		<rect x="71.2" y="59.3" class="st7" width="0.2" height="2"/>
		<rect x="71.2" y="59.3" class="st6" width="0.2" height="2"/>
		<rect x="71" y="61.2" class="st3" width="0.2" height="2.9"/>
		<rect x="71" y="61.2" class="st6" width="0.2" height="2.9"/>
		<rect x="71" y="61.2" class="st6" width="0.2" height="2.9"/>
		<path class="st3" d="M71,65.5h0.2c0,0,0-0.1,0-0.1v-1.2H71V65.5z"/>
		<path class="st6" d="M71,65.5h0.2c0,0,0-0.1,0-0.1v-1.2H71V65.5z"/>
		<path class="st6" d="M71,65.5h0.2c0,0,0-0.1,0-0.1v-1.2H71V65.5z"/>
		<path class="st6" d="M71,65.5h0.2c0,0,0-0.1,0-0.1v-1.2H71V65.5z"/>
		<rect x="71" y="59.3" class="st3" width="0.2" height="2"/>
		<rect x="71" y="59.3" class="st7" width="0.2" height="2"/>
		<rect x="71" y="59.3" class="st6" width="0.2" height="2"/>
		<rect x="71" y="59.3" class="st6" width="0.2" height="2"/>
		<path class="st3" d="M66.7,80.7L66.7,80.7C66.7,80.7,66.7,80.7,66.7,80.7c-0.1,0.1-0.2,0.1-0.3,0.1h0c0,0,0,0-0.1,0c0,0,0,0,0,0
			c0,0,0,0-0.1,0c0,0,0,0,0,0c-0.1,0-0.2,0.1-0.4,0.1c1.3,0,1.6,1.6,0.8,2.2h0c0,0,0,0,0,0c-0.1,0.1-0.1,0.1-0.2,0.1h0c0,0,0,0,0,0
			c0,0-0.1,0-0.1,0c0,0,0,0-0.1,0c0,0,0,0-0.1,0c0,0,0,0-0.1,0c-0.1,0-0.2,0-0.3,0c1.3,0,1.6,1.4,0.9,2.1h0c0,0,0,0-0.1,0
			c0,0-0.1,0.1-0.1,0.1c0,0-0.1,0-0.1,0.1c0,0,0,0,0,0h0c0,0,0,0,0,0c0,0-0.1,0-0.1,0c0,0-0.1,0-0.1,0c0,0,0,0-0.1,0c0,0,0,0,0,0
			c-0.1,0-0.2,0-0.3,0c1.3,0,1.6,1.6,0.8,2.2h0c0,0,0,0,0,0c-0.1,0.1-0.1,0.1-0.2,0.1h0c0,0,0,0,0,0c0,0-0.1,0-0.1,0c0,0,0,0-0.1,0
			c0,0,0,0-0.1,0c0,0,0,0,0,0c-0.1,0-0.2,0-0.3,0h0.2c1.7,0,1.7-2.5,0-2.5c1.7,0,1.7-2.5,0-2.5c1.7,0,1.7-2.5,0-2.5
			c1.7,0,1.7-2.5,0-2.5H66C67.3,78.4,67.5,80,66.7,80.7z"/>
		<path class="st6" d="M66.7,80.7L66.7,80.7C66.7,80.7,66.7,80.7,66.7,80.7c-0.1,0.1-0.2,0.1-0.3,0.1h0c0,0,0,0-0.1,0c0,0,0,0,0,0
			c0,0,0,0-0.1,0c0,0,0,0,0,0c-0.1,0-0.2,0.1-0.4,0.1c1.3,0,1.6,1.6,0.8,2.2h0c0,0,0,0,0,0c-0.1,0.1-0.1,0.1-0.2,0.1h0c0,0,0,0,0,0
			c0,0-0.1,0-0.1,0c0,0,0,0-0.1,0c0,0,0,0-0.1,0c0,0,0,0-0.1,0c-0.1,0-0.2,0-0.3,0c1.3,0,1.6,1.4,0.9,2.1h0c0,0,0,0-0.1,0
			c0,0-0.1,0.1-0.1,0.1c0,0-0.1,0-0.1,0.1c0,0,0,0,0,0h0c0,0,0,0,0,0c0,0-0.1,0-0.1,0c0,0-0.1,0-0.1,0c0,0,0,0-0.1,0c0,0,0,0,0,0
			c-0.1,0-0.2,0-0.3,0c1.3,0,1.6,1.6,0.8,2.2h0c0,0,0,0,0,0c-0.1,0.1-0.1,0.1-0.2,0.1h0c0,0,0,0,0,0c0,0-0.1,0-0.1,0c0,0,0,0-0.1,0
			c0,0,0,0-0.1,0c0,0,0,0,0,0c-0.1,0-0.2,0-0.3,0h0.2c1.7,0,1.7-2.5,0-2.5c1.7,0,1.7-2.5,0-2.5c1.7,0,1.7-2.5,0-2.5
			c1.7,0,1.7-2.5,0-2.5H66C67.3,78.4,67.5,80,66.7,80.7z"/>
		<path class="st3" d="M65.9,80.9c-1.1,0-2.2,0-3.2,0v2.2h3.2V80.9z"/>
		<path class="st3" d="M65.9,83.4c-1.1,0-2.2,0-3.2,0v2.1h3.2V83.4z"/>
		<path class="st3" d="M65.9,85.9c-1.1,0-2.2,0-3.2,0v2.2h3.2V85.9z"/>
		<path class="st3" d="M62.7,78.4c-0.7,0-1.3,0-2,0v2.2h2V78.4z"/>
		<path class="st7" d="M62.7,78.4c-0.7,0-1.3,0-2,0v2.2h2V78.4z"/>
		<path class="st3" d="M62.7,80.9c-0.7,0-1.3,0-2,0v2.2h2V80.9z"/>
		<path class="st7" d="M62.7,80.9c-0.7,0-1.3,0-2,0v2.2h2V80.9z"/>
		<path class="st3" d="M62.7,83.4c-0.7,0-1.3,0-2,0v2.1h2V83.4z"/>
		<path class="st7" d="M62.7,83.4c-0.7,0-1.3,0-2,0v2.1h2V83.4z"/>
		<path class="st3" d="M62.7,85.9c-0.7,0-1.3,0-2,0v2.2h2V85.9z"/>
		<path class="st7" d="M62.7,85.9c-0.7,0-1.3,0-2,0v2.2h2V85.9z"/>
		<polygon class="st3" points="66.7,80.7 66.7,80.7 66.7,80.7 		"/>
		<polygon class="st6" points="66.7,80.7 66.7,80.7 66.7,80.7 		"/>
		<polygon class="st6" points="66.7,80.7 66.7,80.7 66.7,80.7 		"/>
		<rect x="62.7" y="80.7" class="st3" width="3.2" height="0.1"/>
		<rect x="62.7" y="80.7" class="st6" width="3.2" height="0.1"/>
		<rect x="60.7" y="80.7" class="st3" width="2" height="0.1"/>
		<rect x="60.7" y="80.7" class="st7" width="2" height="0.1"/>
		<rect x="60.7" y="80.7" class="st6" width="2" height="0.1"/>
		<path class="st3" d="M65.9,80.8h-3.2v0.1c1.1,0,2.2,0,3.2,0V80.8z"/>
		<path class="st6" d="M65.9,80.8h-3.2v0.1c1.1,0,2.2,0,3.2,0V80.8z"/>
		<path class="st8" d="M65.9,80.8h-3.2v0.1c1.1,0,2.2,0,3.2,0V80.8z"/>
		<path class="st3" d="M62.7,80.8h-2v0.1c0.7,0,1.3,0,2,0V80.8z"/>
		<path class="st7" d="M62.7,80.8h-2v0.1c0.7,0,1.3,0,2,0V80.8z"/>
		<path class="st6" d="M62.7,80.8h-2v0.1c0.7,0,1.3,0,2,0V80.8z"/>
		<path class="st8" d="M62.7,80.8h-2v0.1c0.7,0,1.3,0,2,0V80.8z"/>
		<path class="st3" d="M66.8,83.1L66.8,83.1C66.8,83.1,66.8,83.1,66.8,83.1C66.8,83.1,66.8,83.1,66.8,83.1z"/>
		<path class="st6" d="M66.8,83.1L66.8,83.1C66.8,83.1,66.8,83.1,66.8,83.1C66.8,83.1,66.8,83.1,66.8,83.1z"/>
		<path class="st6" d="M66.8,83.1L66.8,83.1C66.8,83.1,66.8,83.1,66.8,83.1C66.8,83.1,66.8,83.1,66.8,83.1z"/>
		<rect x="62.7" y="83.1" class="st3" width="3.2" height="0.1"/>
		<rect x="62.7" y="83.1" class="st6" width="3.2" height="0.1"/>
		<rect x="60.7" y="83.1" class="st3" width="2" height="0.1"/>
		<rect x="60.7" y="83.1" class="st7" width="2" height="0.1"/>
		<rect x="60.7" y="83.1" class="st6" width="2" height="0.1"/>
		<polygon class="st3" points="66.5,83.3 66.5,83.3 66.5,83.3 		"/>
		<polygon class="st6" points="66.5,83.3 66.5,83.3 66.5,83.3 		"/>
		<polygon class="st8" points="66.5,83.3 66.5,83.3 66.5,83.3 		"/>
		<path class="st3" d="M65.9,83.3h-3.2v0.1c1.1,0,2.2,0,3.2,0V83.3z"/>
		<path class="st6" d="M65.9,83.3h-3.2v0.1c1.1,0,2.2,0,3.2,0V83.3z"/>
		<path class="st8" d="M65.9,83.3h-3.2v0.1c1.1,0,2.2,0,3.2,0V83.3z"/>
		<path class="st3" d="M62.7,83.3h-2v0.1c0.7,0,1.3,0,2,0V83.3z"/>
		<path class="st7" d="M62.7,83.3h-2v0.1c0.7,0,1.3,0,2,0V83.3z"/>
		<path class="st6" d="M62.7,83.3h-2v0.1c0.7,0,1.3,0,2,0V83.3z"/>
		<path class="st8" d="M62.7,83.3h-2v0.1c0.7,0,1.3,0,2,0V83.3z"/>
		<path class="st3" d="M66.9,85.5L66.9,85.5C66.8,85.5,66.8,85.5,66.9,85.5C66.8,85.5,66.8,85.5,66.9,85.5z"/>
		<path class="st6" d="M66.9,85.5L66.9,85.5C66.8,85.5,66.8,85.5,66.9,85.5C66.8,85.5,66.8,85.5,66.9,85.5z"/>
		<path class="st6" d="M66.9,85.5L66.9,85.5C66.8,85.5,66.8,85.5,66.9,85.5C66.8,85.5,66.8,85.5,66.9,85.5z"/>
		<path class="st3" d="M66.4,85.8c0,0,0.1,0,0.1,0C66.4,85.8,66.4,85.8,66.4,85.8C66.4,85.8,66.4,85.8,66.4,85.8z"/>
		<path class="st6" d="M66.4,85.8c0,0,0.1,0,0.1,0C66.4,85.8,66.4,85.8,66.4,85.8C66.4,85.8,66.4,85.8,66.4,85.8z"/>
		<path class="st6" d="M66.4,85.8c0,0,0.1,0,0.1,0C66.4,85.8,66.4,85.8,66.4,85.8C66.4,85.8,66.4,85.8,66.4,85.8z"/>
		<rect x="62.7" y="85.5" class="st3" width="3.2" height="0.2"/>
		<rect x="62.7" y="85.5" class="st6" width="3.2" height="0.2"/>
		<rect x="60.7" y="85.5" class="st3" width="2" height="0.2"/>
		<rect x="60.7" y="85.5" class="st7" width="2" height="0.2"/>
		<rect x="60.7" y="85.5" class="st6" width="2" height="0.2"/>
		<path class="st3" d="M66.3,85.8C66.3,85.8,66.3,85.8,66.3,85.8C66.4,85.8,66.4,85.8,66.3,85.8C66.3,85.8,66.3,85.8,66.3,85.8z"/>
		<path class="st6" d="M66.3,85.8C66.3,85.8,66.3,85.8,66.3,85.8C66.4,85.8,66.4,85.8,66.3,85.8C66.3,85.8,66.3,85.8,66.3,85.8z"/>
		<path class="st8" d="M66.3,85.8C66.3,85.8,66.3,85.8,66.3,85.8C66.4,85.8,66.4,85.8,66.3,85.8C66.3,85.8,66.3,85.8,66.3,85.8z"/>
		<path class="st3" d="M66.6,85.7L66.6,85.7C66.6,85.7,66.6,85.7,66.6,85.7C66.6,85.7,66.6,85.7,66.6,85.7z"/>
		<path class="st6" d="M66.6,85.7L66.6,85.7C66.6,85.7,66.6,85.7,66.6,85.7C66.6,85.7,66.6,85.7,66.6,85.7z"/>
		<path class="st8" d="M66.6,85.7L66.6,85.7C66.6,85.7,66.6,85.7,66.6,85.7C66.6,85.7,66.6,85.7,66.6,85.7z"/>
		<path class="st3" d="M66.4,85.8C66.4,85.8,66.4,85.8,66.4,85.8C66.4,85.8,66.4,85.8,66.4,85.8C66.4,85.8,66.4,85.8,66.4,85.8z"/>
		<path class="st6" d="M66.4,85.8C66.4,85.8,66.4,85.8,66.4,85.8C66.4,85.8,66.4,85.8,66.4,85.8C66.4,85.8,66.4,85.8,66.4,85.8z"/>
		<path class="st6" d="M66.4,85.8C66.4,85.8,66.4,85.8,66.4,85.8C66.4,85.8,66.4,85.8,66.4,85.8C66.4,85.8,66.4,85.8,66.4,85.8z"/>
		<path class="st8" d="M66.4,85.8C66.4,85.8,66.4,85.8,66.4,85.8C66.4,85.8,66.4,85.8,66.4,85.8C66.4,85.8,66.4,85.8,66.4,85.8z"/>
		<path class="st3" d="M65.9,85.7h-3.2v0.2c1.1,0,2.2,0,3.2,0V85.7z"/>
		<path class="st6" d="M65.9,85.7h-3.2v0.2c1.1,0,2.2,0,3.2,0V85.7z"/>
		<path class="st8" d="M65.9,85.7h-3.2v0.2c1.1,0,2.2,0,3.2,0V85.7z"/>
		<path class="st3" d="M62.7,85.7h-2v0.2c0.7,0,1.3,0,2,0V85.7z"/>
		<path class="st7" d="M62.7,85.7h-2v0.2c0.7,0,1.3,0,2,0V85.7z"/>
		<path class="st6" d="M62.7,85.7h-2v0.2c0.7,0,1.3,0,2,0V85.7z"/>
		<path class="st8" d="M62.7,85.7h-2v0.2c0.7,0,1.3,0,2,0V85.7z"/>
		<polygon class="st3" points="66.8,88.1 66.8,88.1 66.8,88.1 		"/>
		<polygon class="st6" points="66.8,88.1 66.8,88.1 66.8,88.1 		"/>
		<polygon class="st6" points="66.8,88.1 66.8,88.1 66.8,88.1 		"/>
		<rect x="62.7" y="88.1" class="st3" width="3.2" height="0.2"/>
		<rect x="62.7" y="88.1" class="st6" width="3.2" height="0.2"/>
		<rect x="60.7" y="88.1" class="st3" width="2" height="0.2"/>
		<rect x="60.7" y="88.1" class="st7" width="2" height="0.2"/>
		<rect x="60.7" y="88.1" class="st6" width="2" height="0.2"/>
		<polygon class="st3" points="66.5,88.2 66.5,88.2 66.5,88.2 		"/>
		<polygon class="st6" points="66.5,88.2 66.5,88.2 66.5,88.2 		"/>
		<polygon class="st8" points="66.5,88.2 66.5,88.2 66.5,88.2 		"/>
		<path class="st3" d="M62.7,88.2v0.1c0.9,0,1.8,0,2.8,0h0.5v-0.1H62.7z"/>
		<path class="st6" d="M62.7,88.2v0.1c0.9,0,1.8,0,2.8,0h0.5v-0.1H62.7z"/>
		<path class="st8" d="M62.7,88.2v0.1c0.9,0,1.8,0,2.8,0h0.5v-0.1H62.7z"/>
		<path class="st3" d="M62.7,88.2h-2v0.1c0.7,0,1.3,0,2,0V88.2z"/>
		<path class="st7" d="M62.7,88.2h-2v0.1c0.7,0,1.3,0,2,0V88.2z"/>
		<path class="st6" d="M62.7,88.2h-2v0.1c0.7,0,1.3,0,2,0V88.2z"/>
		<path class="st8" d="M62.7,88.2h-2v0.1c0.7,0,1.3,0,2,0V88.2z"/>
		<path class="st3" d="M66,78.4L66,78.4l-0.1,2.2h0.8C67.5,80,67.3,78.4,66,78.4z"/>
		<path class="st9" d="M66,78.4L66,78.4l-0.1,2.2h0.8C67.5,80,67.3,78.4,66,78.4z"/>
		<path class="st3" d="M66.7,80.7c-0.1,0.1-0.2,0.1-0.3,0.1h0C66.6,80.8,66.7,80.7,66.7,80.7z"/>
		<path class="st9" d="M66.7,80.7c-0.1,0.1-0.2,0.1-0.3,0.1h0C66.6,80.8,66.7,80.7,66.7,80.7z"/>
		<polygon class="st3" points="66.4,80.8 66.4,80.8 66.4,80.8 		"/>
		<polygon class="st9" points="66.4,80.8 66.4,80.8 66.4,80.8 		"/>
		<path class="st3" d="M66.5,80.8c0.1,0,0.2-0.1,0.3-0.1c0,0,0,0,0,0h-0.8v0.1H66.5z"/>
		<path class="st6" d="M66.5,80.8c0.1,0,0.2-0.1,0.3-0.1c0,0,0,0,0,0h-0.8v0.1H66.5z"/>
		<path class="st9" d="M66.5,80.8c0.1,0,0.2-0.1,0.3-0.1c0,0,0,0,0,0h-0.8v0.1H66.5z"/>
		<path class="st3" d="M66.3,80.8C66.3,80.8,66.3,80.8,66.3,80.8C66.4,80.8,66.4,80.8,66.3,80.8C66.4,80.8,66.4,80.8,66.3,80.8
			C66.4,80.8,66.4,80.8,66.3,80.8z"/>
		<path class="st6" d="M66.3,80.8C66.3,80.8,66.3,80.8,66.3,80.8C66.4,80.8,66.4,80.8,66.3,80.8C66.4,80.8,66.4,80.8,66.3,80.8
			C66.4,80.8,66.4,80.8,66.3,80.8z"/>
		<path class="st9" d="M66.3,80.8C66.3,80.8,66.3,80.8,66.3,80.8C66.4,80.8,66.4,80.8,66.3,80.8C66.4,80.8,66.4,80.8,66.3,80.8
			C66.4,80.8,66.4,80.8,66.3,80.8z"/>
		<path class="st3" d="M66.4,80.8C66.5,80.8,66.5,80.8,66.4,80.8L66.4,80.8L66.4,80.8C66.5,80.8,66.4,80.8,66.4,80.8
			C66.4,80.8,66.4,80.8,66.4,80.8z"/>
		<path class="st8" d="M66.4,80.8C66.5,80.8,66.5,80.8,66.4,80.8L66.4,80.8L66.4,80.8C66.5,80.8,66.4,80.8,66.4,80.8
			C66.4,80.8,66.4,80.8,66.4,80.8z"/>
		<path class="st9" d="M66.4,80.8C66.5,80.8,66.5,80.8,66.4,80.8L66.4,80.8L66.4,80.8C66.5,80.8,66.4,80.8,66.4,80.8
			C66.4,80.8,66.4,80.8,66.4,80.8z"/>
		<path class="st3" d="M66,80.9c0.1,0,0.3,0,0.4-0.1c0,0,0.1,0,0.1,0c0,0,0,0,0,0h-0.6L66,80.9C65.9,80.9,65.9,80.9,66,80.9z"/>
		<path class="st6" d="M66,80.9c0.1,0,0.3,0,0.4-0.1c0,0,0.1,0,0.1,0c0,0,0,0,0,0h-0.6L66,80.9C65.9,80.9,65.9,80.9,66,80.9z"/>
		<path class="st8" d="M66,80.9c0.1,0,0.3,0,0.4-0.1c0,0,0.1,0,0.1,0c0,0,0,0,0,0h-0.6L66,80.9C65.9,80.9,65.9,80.9,66,80.9z"/>
		<path class="st9" d="M66,80.9c0.1,0,0.3,0,0.4-0.1c0,0,0.1,0,0.1,0c0,0,0,0,0,0h-0.6L66,80.9C65.9,80.9,65.9,80.9,66,80.9z"/>
		<path class="st3" d="M66.4,83.3C66.5,83.3,66.5,83.3,66.4,83.3C66.5,83.3,66.5,83.3,66.4,83.3C66.4,83.3,66.4,83.3,66.4,83.3z"/>
		<path class="st9" d="M66.4,83.3C66.5,83.3,66.5,83.3,66.4,83.3C66.5,83.3,66.5,83.3,66.4,83.3C66.4,83.3,66.4,83.3,66.4,83.3z"/>
		<path class="st3" d="M65.9,83.1h0.9c0.8-0.6,0.5-2.2-0.8-2.2c0,0,0,0-0.1,0V83.1z"/>
		<path class="st9" d="M65.9,83.1h0.9c0.8-0.6,0.5-2.2-0.8-2.2c0,0,0,0-0.1,0V83.1z"/>
		<path class="st3" d="M66.3,83.3C66.3,83.3,66.4,83.3,66.3,83.3C66.4,83.3,66.4,83.3,66.3,83.3C66.3,83.3,66.3,83.3,66.3,83.3z"/>
		<path class="st9" d="M66.3,83.3C66.3,83.3,66.4,83.3,66.3,83.3C66.4,83.3,66.4,83.3,66.3,83.3C66.3,83.3,66.3,83.3,66.3,83.3z"/>
		<path class="st3" d="M66.5,83.3c0.1,0,0.2-0.1,0.2-0.1C66.7,83.2,66.6,83.2,66.5,83.3L66.5,83.3z"/>
		<path class="st9" d="M66.5,83.3c0.1,0,0.2-0.1,0.2-0.1C66.7,83.2,66.6,83.2,66.5,83.3L66.5,83.3z"/>
		<path class="st3" d="M66.4,83.3C66.4,83.3,66.4,83.3,66.4,83.3C66.4,83.3,66.4,83.3,66.4,83.3C66.4,83.3,66.4,83.3,66.4,83.3
			C66.4,83.3,66.4,83.3,66.4,83.3z"/>
		<path class="st6" d="M66.4,83.3C66.4,83.3,66.4,83.3,66.4,83.3C66.4,83.3,66.4,83.3,66.4,83.3C66.4,83.3,66.4,83.3,66.4,83.3
			C66.4,83.3,66.4,83.3,66.4,83.3z"/>
		<path class="st9" d="M66.4,83.3C66.4,83.3,66.4,83.3,66.4,83.3C66.4,83.3,66.4,83.3,66.4,83.3C66.4,83.3,66.4,83.3,66.4,83.3
			C66.4,83.3,66.4,83.3,66.4,83.3z"/>
		<path class="st3" d="M65.9,83.3h0.6c0.1,0,0.2-0.1,0.2-0.1c0,0,0,0,0,0h-0.9V83.3z"/>
		<path class="st6" d="M65.9,83.3h0.6c0.1,0,0.2-0.1,0.2-0.1c0,0,0,0,0,0h-0.9V83.3z"/>
		<path class="st9" d="M65.9,83.3h0.6c0.1,0,0.2-0.1,0.2-0.1c0,0,0,0,0,0h-0.9V83.3z"/>
		<path class="st3" d="M66,83.4c0.1,0,0.2,0,0.3,0c0,0,0,0,0.1,0c0,0,0,0,0,0C66.2,83.3,66.1,83.4,66,83.4z"/>
		<path class="st8" d="M66,83.4c0.1,0,0.2,0,0.3,0c0,0,0,0,0.1,0c0,0,0,0,0,0C66.2,83.3,66.1,83.4,66,83.4z"/>
		<path class="st9" d="M66,83.4c0.1,0,0.2,0,0.3,0c0,0,0,0,0.1,0c0,0,0,0,0,0C66.2,83.3,66.1,83.4,66,83.4z"/>
		<path class="st3" d="M66.5,83.3C66.5,83.3,66.5,83.3,66.5,83.3C66.5,83.3,66.5,83.3,66.5,83.3L66.5,83.3
			C66.5,83.3,66.5,83.3,66.5,83.3z"/>
		<path class="st8" d="M66.5,83.3C66.5,83.3,66.5,83.3,66.5,83.3C66.5,83.3,66.5,83.3,66.5,83.3L66.5,83.3
			C66.5,83.3,66.5,83.3,66.5,83.3z"/>
		<path class="st9" d="M66.5,83.3C66.5,83.3,66.5,83.3,66.5,83.3C66.5,83.3,66.5,83.3,66.5,83.3L66.5,83.3
			C66.5,83.3,66.5,83.3,66.5,83.3z"/>
		<path class="st3" d="M66.5,83.3C66.5,83.3,66.5,83.3,66.5,83.3l-0.6,0v0.1c0,0,0,0,0.1,0C66.1,83.4,66.2,83.3,66.5,83.3
			C66.4,83.3,66.4,83.3,66.5,83.3z"/>
		<path class="st6" d="M66.5,83.3C66.5,83.3,66.5,83.3,66.5,83.3l-0.6,0v0.1c0,0,0,0,0.1,0C66.1,83.4,66.2,83.3,66.5,83.3
			C66.4,83.3,66.4,83.3,66.5,83.3z"/>
		<path class="st8" d="M66.5,83.3C66.5,83.3,66.5,83.3,66.5,83.3l-0.6,0v0.1c0,0,0,0,0.1,0C66.1,83.4,66.2,83.3,66.5,83.3
			C66.4,83.3,66.4,83.3,66.5,83.3z"/>
		<path class="st9" d="M66.5,83.3C66.5,83.3,66.5,83.3,66.5,83.3l-0.6,0v0.1c0,0,0,0,0.1,0C66.1,83.4,66.2,83.3,66.5,83.3
			C66.4,83.3,66.4,83.3,66.5,83.3z"/>
		<path class="st3" d="M66.5,85.7C66.5,85.7,66.5,85.7,66.5,85.7C66.6,85.7,66.6,85.7,66.5,85.7C66.5,85.7,66.5,85.7,66.5,85.7z"/>
		<path class="st9" d="M66.5,85.7C66.5,85.7,66.5,85.7,66.5,85.7C66.6,85.7,66.6,85.7,66.5,85.7C66.5,85.7,66.5,85.7,66.5,85.7z"/>
		<path class="st3" d="M65.9,85.5h1c0.7-0.7,0.4-2.1-0.9-2.1c0,0,0,0-0.1,0V85.5z"/>
		<path class="st9" d="M65.9,85.5h1c0.7-0.7,0.4-2.1-0.9-2.1c0,0,0,0-0.1,0V85.5z"/>
		<polygon class="st3" points="66.6,85.7 66.6,85.7 66.6,85.7 		"/>
		<polygon class="st9" points="66.6,85.7 66.6,85.7 66.6,85.7 		"/>
		<path class="st3" d="M66.2,85.8C66.3,85.8,66.3,85.8,66.2,85.8C66.3,85.8,66.3,85.8,66.2,85.8C66.3,85.8,66.3,85.8,66.2,85.8z"/>
		<path class="st9" d="M66.2,85.8C66.3,85.8,66.3,85.8,66.2,85.8C66.3,85.8,66.3,85.8,66.2,85.8C66.3,85.8,66.3,85.8,66.2,85.8z"/>
		<path class="st3" d="M65.9,85.7h0.7c0,0,0,0,0,0c0,0,0.1,0,0.1-0.1c0,0,0.1-0.1,0.1-0.1c0,0,0,0,0.1,0h-1V85.7z"/>
		<path class="st6" d="M65.9,85.7h0.7c0,0,0,0,0,0c0,0,0.1,0,0.1-0.1c0,0,0.1-0.1,0.1-0.1c0,0,0,0,0.1,0h-1V85.7z"/>
		<path class="st9" d="M65.9,85.7h0.7c0,0,0,0,0,0c0,0,0.1,0,0.1-0.1c0,0,0.1-0.1,0.1-0.1c0,0,0,0,0.1,0h-1V85.7z"/>
		<path class="st3" d="M66.4,85.8c0,0,0.1,0,0.1,0c0,0,0.1,0,0.1,0C66.5,85.7,66.4,85.8,66.4,85.8z"/>
		<path class="st6" d="M66.4,85.8c0,0,0.1,0,0.1,0c0,0,0.1,0,0.1,0C66.5,85.7,66.4,85.8,66.4,85.8z"/>
		<path class="st9" d="M66.4,85.8c0,0,0.1,0,0.1,0c0,0,0.1,0,0.1,0C66.5,85.7,66.4,85.8,66.4,85.8z"/>
		<path class="st3" d="M66,85.9c0.1,0,0.2,0,0.3,0c0,0,0,0,0,0C66.2,85.8,66.1,85.9,66,85.9z"/>
		<path class="st6" d="M66,85.9c0.1,0,0.2,0,0.3,0c0,0,0,0,0,0C66.2,85.8,66.1,85.9,66,85.9z"/>
		<path class="st9" d="M66,85.9c0.1,0,0.2,0,0.3,0c0,0,0,0,0,0C66.2,85.8,66.1,85.9,66,85.9z"/>
		<path class="st3" d="M66.6,85.7C66.6,85.7,66.6,85.7,66.6,85.7C66.6,85.7,66.6,85.7,66.6,85.7L66.6,85.7
			C66.6,85.7,66.6,85.7,66.6,85.7z"/>
		<path class="st8" d="M66.6,85.7C66.6,85.7,66.6,85.7,66.6,85.7C66.6,85.7,66.6,85.7,66.6,85.7L66.6,85.7
			C66.6,85.7,66.6,85.7,66.6,85.7z"/>
		<path class="st9" d="M66.6,85.7C66.6,85.7,66.6,85.7,66.6,85.7C66.6,85.7,66.6,85.7,66.6,85.7L66.6,85.7
			C66.6,85.7,66.6,85.7,66.6,85.7z"/>
		<path class="st3" d="M66.3,85.8C66.3,85.8,66.3,85.8,66.3,85.8C66.3,85.8,66.3,85.8,66.3,85.8C66.3,85.8,66.3,85.8,66.3,85.8z"/>
		<path class="st8" d="M66.3,85.8C66.3,85.8,66.3,85.8,66.3,85.8C66.3,85.8,66.3,85.8,66.3,85.8C66.3,85.8,66.3,85.8,66.3,85.8z"/>
		<path class="st9" d="M66.3,85.8C66.3,85.8,66.3,85.8,66.3,85.8C66.3,85.8,66.3,85.8,66.3,85.8C66.3,85.8,66.3,85.8,66.3,85.8z"/>
		<path class="st3" d="M66.4,85.8C66.4,85.8,66.4,85.8,66.4,85.8c0.1,0,0.2-0.1,0.2-0.1c0,0,0,0,0,0h-0.7v0.2c0,0,0,0,0.1,0
			C66.1,85.9,66.2,85.8,66.4,85.8C66.3,85.8,66.3,85.8,66.4,85.8z"/>
		<path class="st6" d="M66.4,85.8C66.4,85.8,66.4,85.8,66.4,85.8c0.1,0,0.2-0.1,0.2-0.1c0,0,0,0,0,0h-0.7v0.2c0,0,0,0,0.1,0
			C66.1,85.9,66.2,85.8,66.4,85.8C66.3,85.8,66.3,85.8,66.4,85.8z"/>
		<path class="st8" d="M66.4,85.8C66.4,85.8,66.4,85.8,66.4,85.8c0.1,0,0.2-0.1,0.2-0.1c0,0,0,0,0,0h-0.7v0.2c0,0,0,0,0.1,0
			C66.1,85.9,66.2,85.8,66.4,85.8C66.3,85.8,66.3,85.8,66.4,85.8z"/>
		<path class="st9" d="M66.4,85.8C66.4,85.8,66.4,85.8,66.4,85.8c0.1,0,0.2-0.1,0.2-0.1c0,0,0,0,0,0h-0.7v0.2c0,0,0,0,0.1,0
			C66.1,85.9,66.2,85.8,66.4,85.8C66.3,85.8,66.3,85.8,66.4,85.8z"/>
		<path class="st3" d="M65.9,88.1h0.9c0.8-0.6,0.5-2.2-0.8-2.2c0,0,0,0-0.1,0V88.1z"/>
		<path class="st9" d="M65.9,88.1h0.9c0.8-0.6,0.5-2.2-0.8-2.2c0,0,0,0-0.1,0V88.1z"/>
		<path class="st3" d="M66.5,88.2c0.1,0,0.2-0.1,0.2-0.1C66.7,88.1,66.6,88.2,66.5,88.2L66.5,88.2z"/>
		<path class="st9" d="M66.5,88.2c0.1,0,0.2-0.1,0.2-0.1C66.7,88.1,66.6,88.2,66.5,88.2L66.5,88.2z"/>
		<path class="st3" d="M66.3,88.3C66.3,88.3,66.3,88.3,66.3,88.3C66.4,88.3,66.4,88.3,66.3,88.3C66.3,88.3,66.3,88.3,66.3,88.3z"/>
		<path class="st9" d="M66.3,88.3C66.3,88.3,66.3,88.3,66.3,88.3C66.4,88.3,66.4,88.3,66.3,88.3C66.3,88.3,66.3,88.3,66.3,88.3z"/>
		<path class="st3" d="M66.4,88.2C66.5,88.2,66.5,88.2,66.4,88.2C66.5,88.2,66.5,88.2,66.4,88.2C66.4,88.2,66.4,88.2,66.4,88.2z"/>
		<path class="st9" d="M66.4,88.2C66.5,88.2,66.5,88.2,66.4,88.2C66.5,88.2,66.5,88.2,66.4,88.2C66.4,88.2,66.4,88.2,66.4,88.2z"/>
		<path class="st3" d="M66.4,88.3C66.4,88.3,66.4,88.3,66.4,88.3C66.4,88.3,66.4,88.2,66.4,88.3C66.4,88.2,66.4,88.2,66.4,88.3
			C66.4,88.2,66.4,88.3,66.4,88.3z"/>
		<path class="st6" d="M66.4,88.3C66.4,88.3,66.4,88.3,66.4,88.3C66.4,88.3,66.4,88.2,66.4,88.3C66.4,88.2,66.4,88.2,66.4,88.3
			C66.4,88.2,66.4,88.3,66.4,88.3z"/>
		<path class="st9" d="M66.4,88.3C66.4,88.3,66.4,88.3,66.4,88.3C66.4,88.3,66.4,88.2,66.4,88.3C66.4,88.2,66.4,88.2,66.4,88.3
			C66.4,88.2,66.4,88.3,66.4,88.3z"/>
		<path class="st3" d="M65.9,88.2h0.6c0.1,0,0.2-0.1,0.3-0.1c0,0,0,0,0,0h-0.9V88.2z"/>
		<path class="st6" d="M65.9,88.2h0.6c0.1,0,0.2-0.1,0.3-0.1c0,0,0,0,0,0h-0.9V88.2z"/>
		<path class="st9" d="M65.9,88.2h0.6c0.1,0,0.2-0.1,0.3-0.1c0,0,0,0,0,0h-0.9V88.2z"/>
		<path class="st3" d="M66.5,88.2C66.5,88.2,66.5,88.2,66.5,88.2C66.5,88.2,66.5,88.2,66.5,88.2L66.5,88.2
			C66.5,88.2,66.5,88.2,66.5,88.2z"/>
		<path class="st8" d="M66.5,88.2C66.5,88.2,66.5,88.2,66.5,88.2C66.5,88.2,66.5,88.2,66.5,88.2L66.5,88.2
			C66.5,88.2,66.5,88.2,66.5,88.2z"/>
		<path class="st9" d="M66.5,88.2C66.5,88.2,66.5,88.2,66.5,88.2C66.5,88.2,66.5,88.2,66.5,88.2L66.5,88.2
			C66.5,88.2,66.5,88.2,66.5,88.2z"/>
		<path class="st3" d="M66.3,88.3C66.3,88.3,66.3,88.3,66.3,88.3c-0.1,0-0.2,0-0.3,0C66.1,88.3,66.2,88.3,66.3,88.3
			C66.3,88.3,66.3,88.3,66.3,88.3z"/>
		<path class="st8" d="M66.3,88.3C66.3,88.3,66.3,88.3,66.3,88.3c-0.1,0-0.2,0-0.3,0C66.1,88.3,66.2,88.3,66.3,88.3
			C66.3,88.3,66.3,88.3,66.3,88.3z"/>
		<path class="st9" d="M66.3,88.3C66.3,88.3,66.3,88.3,66.3,88.3c-0.1,0-0.2,0-0.3,0C66.1,88.3,66.2,88.3,66.3,88.3
			C66.3,88.3,66.3,88.3,66.3,88.3z"/>
		<path class="st3" d="M66.5,88.2C66.5,88.2,66.5,88.2,66.5,88.2l-0.6,0v0.1H66C66.1,88.3,66.2,88.3,66.5,88.2
			C66.4,88.3,66.4,88.2,66.5,88.2z"/>
		<path class="st6" d="M66.5,88.2C66.5,88.2,66.5,88.2,66.5,88.2l-0.6,0v0.1H66C66.1,88.3,66.2,88.3,66.5,88.2
			C66.4,88.3,66.4,88.2,66.5,88.2z"/>
		<path class="st8" d="M66.5,88.2C66.5,88.2,66.5,88.2,66.5,88.2l-0.6,0v0.1H66C66.1,88.3,66.2,88.3,66.5,88.2
			C66.4,88.3,66.4,88.2,66.5,88.2z"/>
		<path class="st9" d="M66.5,88.2C66.5,88.2,66.5,88.2,66.5,88.2l-0.6,0v0.1H66C66.1,88.3,66.2,88.3,66.5,88.2
			C66.4,88.3,66.4,88.2,66.5,88.2z"/>
	</g>
</g>
</svg>
