<?xml version="1.0" encoding="utf-8"?>
<!-- Generator: Adobe Illustrator 19.2.1, SVG Export Plug-In . SVG Version: 6.00 Build 0)  -->
<svg version="1.1" id="Layer_1" xmlns="http://www.w3.org/2000/svg" xmlns:xlink="http://www.w3.org/1999/xlink" x="0px" y="0px"
	 viewBox="0 0 181 197.1" style="enable-background:new 0 0 181 197.1;" xml:space="preserve">
<style type="text/css">
	.st0{fill:#2C3E50;}
	.st1{fill:#25AE60;}
	.st2{fill:#FFFFFF;}
	.st3{fill:#2BCC71;}
	.st4{fill:#2980B9;}
	.st5{fill:#3498DB;}
	.st6{fill:#F39C13;}
	.st7{fill:#F1C411;}
	.st8{fill:#8E44AD;}
</style>
<g>
	<path class="st0" d="M149.9,151.6l-3.2,2.7c-0.7-1.7-3.3-8.5-7.8-15c-5-7.2-5.1-15.1-14.6-18c-6.4-1.9-17.2,1.9-23.7,0.9
		c-6.5-0.9-20.5-8.9-26-2c-2.4,3,1,8.6,1,8.6s16.2-2.2,30.4-0.9c-12.3,0-28.3,3.8-37.5,2.4c-16.1-2.5-24.9-12.3-32.8-15.2
		c-2.5-0.9-4.6-0.4-5.8,0c-0.8,0.7-2,2-2.2,3.2c-0.1,0.7,0.1,1.3,0.5,1.8c3.3,4.1,8.8,8.8,15.5,13.2c5.1,3.4,8.6,5.1,12.2,6.7
		c7.1,3.1,13.4,3.1,13.4,3.1c0.3,0,0.5,0.2,0.5,0.5c0,0.3-0.2,0.5-0.5,0.5c0,0,0,0,0,0c-0.3,0-6.5,0-13.9-3.2
		c-3.7-1.6-7.3-3.4-12.4-6.8c-6.8-4.5-12.3-9.3-15.7-13.5c-0.6-0.8-0.9-1.7-0.8-2.7c0.2-1.1,0.9-2.1,1.6-3c-2-1.8-9.7-8.3-14.9-7.9
		c-5.3,0.4-5.6,5.9-5.6,5.9s19.2,20.2,27.6,26c3.5,2.4,9.1,5.8,15.1,9.1c8.6,4.7,18.2,9.2,24.2,10.4c10.5,2.1,32.9-1.8,41.3,4.3
		c2.7,2,7.5,8.8,7.5,8.8l18.2-13.4l-21.5,18.2l13.5,20.4H181l-22.2-33.9L149.9,151.6z"/>
	<g>
		<path class="st1" d="M33.8,101.3c-1.4,3.9,3.7,5.7,5.1,1.8l8.2-22.9l-4.3-1.6c-0.4-0.2-0.9,0.1-1.1,0.5L33.8,101.3z"/>
		<g>
			<path class="st2" d="M37.4,102.1c-0.2,0.5,0.1,1.1,0.6,1.3l22.5,8.1l9.4-26.2c0.1-0.4-0.1-0.8-0.5-0.9l-21.8-7.8
				c-0.4-0.1-1-0.2-1.2,0.3L37.4,102.1z"/>
		</g>
		<path class="st3" d="M34.9,105c1.3,0.5,3,0.1,4-1.7l8.9-15.8c0.2-0.4,0.6-0.5,1-0.4l6.2,2.2l3.2,1.1l1.5-2.1
			c0.4-0.6,1.5-0.8,2.2-0.5l10.4,3.8c0.5,0.2,0.8,0.5,1,1c0.2,0.4,0.2,1-0.1,1.4l-9.6,17.2c-1.1,1.9-3.1,3.1-4.5,2.6l-13.1-4.7
			l-1.8-0.7L34.9,105L34.9,105z"/>
	</g>
	<g>
		<path class="st4" d="M106.4,114.7c-3,2.8-6.8-1.1-3.8-3.9L120.2,94l3.2,3.3c0.3,0.3,0.3,0.9,0,1.2L106.4,114.7z"/>
		<g>
			<path class="st2" d="M104.2,111.7c-0.4,0.4-1,0.4-1.4,0L86.3,94.4l20.1-19.2c0.3-0.3,0.7-0.2,1,0.1l16,16.8
				c0.3,0.3,0.6,0.8,0.2,1.2L104.2,111.7z"/>
		</g>
		<path class="st5" d="M102.5,115.2c-0.9-1-1.3-2.8-0.1-4.4l10.8-14.5c0.2-0.3,0.2-0.8-0.1-1.1l-4.5-4.7l-2.3-2.4l1.3-2.2
			c0.4-0.7,0.1-1.7-0.4-2.2l-7.7-8c-0.3-0.3-0.8-0.5-1.3-0.5c-0.5,0-0.9,0.2-1.2,0.6L85.3,91.4c-1.3,1.8-1.6,4.1-0.5,5.1l9.6,10.1
			l1.3,1.4L102.5,115.2L102.5,115.2z"/>
	</g>
	<g>
		<path class="st6" d="M85.6,79.2c-1.9,3.7-6.7,1.2-4.9-2.4L91.7,55l4.1,2.1c0.4,0.2,0.6,0.7,0.4,1.1L85.6,79.2z"/>
		<g>
			<path class="st2" d="M82.6,77.1c-0.2,0.5-0.9,0.7-1.3,0.4L59.9,66.8L72.4,42c0.2-0.3,0.6-0.5,1-0.3l20.7,10.4
				c0.4,0.2,0.8,0.6,0.6,1.1L82.6,77.1z"/>
		</g>
		<path class="st7" d="M82.2,81c-1.2-0.6-2.1-2.2-1.5-4.1L86,59.6c0.1-0.4-0.1-0.8-0.4-1l-5.8-2.9l-3-1.5l0.5-2.5
			c0.1-0.7-0.5-1.6-1.1-1.9l-9.9-5c-0.4-0.2-0.9-0.2-1.4-0.1c-0.4,0.2-0.8,0.5-1,1L58,64.4c-0.6,2.1-0.1,4.4,1.2,5l12.4,6.3l1.7,0.9
			L82.2,81L82.2,81z"/>
	</g>
	<g>
		<path class="st4" d="M26.3,36c-0.5,4.1,4.9,4.8,5.4,0.6l2.9-24.1L30,12c-0.5-0.1-0.9,0.3-0.9,0.7L26.3,36z"/>
		<g>
			<path class="st2" d="M30,36c-0.1,0.5,0.3,1,0.9,1.1L54.6,40l3.3-27.6c0-0.4-0.3-0.7-0.7-0.8l-23-2.8c-0.4,0-1,0-1.1,0.6L30,36z"
				/>
		</g>
		<path class="st5" d="M28.2,39.4c1.3,0.2,3-0.6,3.5-2.5l5.1-17.4c0.1-0.4,0.5-0.6,0.9-0.6l6.5,0.8l3.3,0.4l1-2.4
			c0.3-0.7,1.3-1.1,2-1l11,1.3c0.5,0.1,0.9,0.3,1.2,0.7c0.3,0.4,0.4,0.9,0.3,1.4L57.6,39c-0.6,2.1-2.3,3.7-3.8,3.5L40,40.8L38,40.6
			L28.2,39.4L28.2,39.4z"/>
	</g>
	<g>
		<path class="st1" d="M118.6,26.3c0.9,4-4.4,5.2-5.3,1.2L108,3.8l4.5-1c0.4-0.1,0.9,0.2,1,0.6L118.6,26.3z"/>
		<g>
			<path class="st2" d="M114.9,26.6c0.1,0.5-0.2,1.1-0.8,1.2l-23.3,5.3L84.8,6c-0.1-0.4,0.2-0.7,0.6-0.8L107.9,0
				c0.4-0.1,1-0.1,1.1,0.4L114.9,26.6z"/>
		</g>
		<path class="st3" d="M117.1,29.8c-1.3,0.3-3-0.3-3.8-2.2l-6.9-16.8c-0.2-0.4-0.6-0.6-0.9-0.5l-6.4,1.4l-3.3,0.7l-1.2-2.3
			c-0.4-0.7-1.4-0.9-2.1-0.8L81.7,12c-0.5,0.1-0.9,0.4-1.1,0.8c-0.2,0.4-0.3,0.9-0.1,1.4l7.4,18.2c0.8,2,2.7,3.4,4.1,3.1l13.6-3.1
			l1.9-0.4L117.1,29.8L117.1,29.8z"/>
	</g>
	<g>
		<path class="st8" d="M39.6,60c3.1,2.8-0.5,6.8-3.6,4.1L17.8,47.9l3.1-3.4c0.3-0.3,0.8-0.4,1.2-0.1L39.6,60z"/>
		<g>
			<path class="st2" d="M36.8,62.4c0.4,0.4,0.4,1,0.1,1.4L20.9,81.7L0.2,63.1c-0.3-0.3-0.3-0.7,0-1l15.4-17.2
				c0.3-0.3,0.8-0.7,1.2-0.3L36.8,62.4z"/>
		</g>
		<path class="st8" d="M40.4,63.8c-0.9,1-2.6,1.5-4.3,0.4l-15.3-9.7c-0.3-0.2-0.8-0.2-1.1,0.1l-4.4,4.9l-2.2,2.5L10.8,61
			c-0.7-0.3-1.7,0-2.2,0.6l-7.4,8.3c-0.3,0.4-0.5,0.8-0.4,1.3c0.1,0.5,0.3,0.9,0.7,1.2l16.6,10.6c1.9,1.2,4.2,1.2,5.2,0.1l9.3-10.4
			l1.3-1.4L40.4,63.8L40.4,63.8z"/>
	</g>
	<g>
		<path class="st8" d="M111.5,55.1c-3,2.8,0.7,6.8,3.7,4l17.7-16.7l-3.2-3.3c-0.3-0.3-0.8-0.3-1.2,0L111.5,55.1z"/>
		<g>
			<path class="st2" d="M114.3,57.4c-0.4,0.4-0.4,1,0,1.4l16.4,17.4l20.2-19.1c0.3-0.3,0.3-0.7,0-1L135,39.2
				c-0.3-0.3-0.8-0.6-1.2-0.3L114.3,57.4z"/>
		</g>
		<path class="st8" d="M110.7,58.8c0.9,1,2.7,1.4,4.3,0.3l15.1-10.1c0.3-0.2,0.8-0.2,1.1,0.1l4.5,4.8l2.3,2.4l2.3-1.2
			c0.7-0.3,1.7,0,2.2,0.5l7.6,8.1c0.3,0.4,0.5,0.8,0.5,1.3c0,0.5-0.3,0.9-0.7,1.2l-16.3,11c-1.8,1.2-4.1,1.3-5.2,0.3l-9.5-10.1
			l-1.3-1.4L110.7,58.8L110.7,58.8z"/>
	</g>
</g>
</svg>
