<?xml version="1.0" encoding="utf-8"?>
<!-- Generator: Adobe Illustrator 19.2.1, SVG Export Plug-In . SVG Version: 6.00 Build 0)  -->
<svg version="1.1" id="Layer_1" xmlns="http://www.w3.org/2000/svg" xmlns:xlink="http://www.w3.org/1999/xlink" x="0px" y="0px"
	 viewBox="0 0 142 142" style="enable-background:new 0 0 142 142;" xml:space="preserve">
<style type="text/css">
	.st0{fill:#34495E;}
	.st1{fill:#0477BD;}
	.st2{fill:#FFFFFF;}
</style>
<path class="st0" d="M142,71c0,0.1,0,0.3,0,0.4c-0.1,22.6-10.8,42.6-27.3,55.5c-12,9.4-27.2,15.1-43.7,15.1c-2.7,0-5.4-0.2-8-0.5
	c-35.4-4-63-34.1-63-70.5C0,31.8,31.8,0,71,0c35.6,0,65,26.1,70.2,60.2C141.7,63.7,142,67.3,142,71z"/>
<path class="st1" d="M96.6,57c-0.8,0-1.6,0-2.4,0.1c-3-11.6-13.5-19.9-25.9-19.9c-14.7,0-26.7,11.7-26.7,26.5c0,0.2,0,0.3,0,0.3l0,0
	c-9.9,0-18,8.5-18,18.4s8.1,18.2,18,18.2l8.8,0.1H94h4.3c5.1,0,9.9-2.3,13.1-5.8c4.5-4.1,7.1-10.1,7.1-16.2
	C118.4,66.8,108.6,57,96.6,57z"/>
<g>
	<g>
		<path class="st2" d="M73.7,64.6c0.6,0,1.1,0.2,1.6,0.7l10.9,10.8c0.9,0.9,0.9,2.3,0,3.2L75.3,90.2c-0.9,0.9-2.3,0.9-3.2,0
			c-0.9-0.9-0.9-2.3,0-3.2l9.3-9.3l-9.3-9.3c-0.9-0.9-0.9-2.3,0-3.2C72.6,64.8,73.1,64.6,73.7,64.6z"/>
	</g>
	<g>
		<path class="st2" d="M59.2,64.6c0.6,0,1.1,0.2,1.6,0.7l10.9,10.8c0.4,0.4,0.7,1,0.7,1.6s-0.2,1.2-0.7,1.6L60.8,90.2
			c-0.9,0.9-2.3,0.9-3.2,0c-0.9-0.9-0.9-2.3,0-3.2l9.3-9.3l-9.3-9.3c-0.9-0.9-0.9-2.3,0-3.2C58.1,64.8,58.7,64.6,59.2,64.6z"/>
	</g>
</g>
</svg>
