<?xml version="1.0" encoding="utf-8"?>
<!-- Generator: Adobe Illustrator 19.2.1, SVG Export Plug-In . SVG Version: 6.00 Build 0)  -->
<svg version="1.1" id="Layer_1" xmlns="http://www.w3.org/2000/svg" xmlns:xlink="http://www.w3.org/1999/xlink" x="0px" y="0px"
	 viewBox="0 0 122.8 82.2" style="enable-background:new 0 0 122.8 82.2;" xml:space="preserve">
<style type="text/css">
	.st0{fill:#3498DB;}
	.st1{fill:#FFFFFF;}
</style>
<g>
	<path class="st0" d="M94.5,25.5c-1.1,0-2.1,0.1-3.2,0.2C87.4,10.7,73.8,0,57.8,0C38.7,0,23.2,15.2,23.2,34.2c0,0.3,0,0.4,0,0.4h0
		C10.4,34.7,0,45.7,0,58.6c0,12.8,10.5,23.5,23.3,23.5l11.3,0.1l56.4,0l5.6,0c6.5,0,12.8-2.9,16.9-7.5c5.9-5.4,9.3-13,9.2-20.9
		C122.7,38.2,110.1,25.5,94.5,25.5z"/>
	<path class="st1" d="M61.4,26.2l-18,5.4v14.9c0,6.1,2.6,11.9,7.3,16l10.8,9.4l10.8-9.4c4.6-4,7.3-9.8,7.3-16V31.6L61.4,26.2z"/>
</g>
</svg>
