<?xml version="1.0" encoding="utf-8"?>
<!-- Generator: Adobe Illustrator 19.2.1, SVG Export Plug-In . SVG Version: 6.00 Build 0)  -->
<svg version="1.1" id="Layer_1" xmlns="http://www.w3.org/2000/svg" xmlns:xlink="http://www.w3.org/1999/xlink" x="0px" y="0px"
	 viewBox="0 0 206.8 146" style="enable-background:new 0 0 206.8 146;" xml:space="preserve">
<style type="text/css">
	.st0{fill:#3498DB;}
</style>
<g>
	<path class="st0" d="M91.8,104.6c23.8-4.9,59.6-34.6,82.3-57c0,0,0,0,0,0c-0.3-10.4-5.6-20.1-14.8-25.2c-7.9-4.4-17-4.6-25.1-1.4
		C125.6,8.4,109.6,0,91.2,0C65.7,0,44.6,16.3,42,37.2c-1.4-0.1-2.7-0.2-4.1-0.2C17,37,0,54.2,0,75.4c0,15.2,8.8,28.4,21.4,34.6
		C47.5,117.9,76.9,111.5,91.8,104.6z M97.2,43.8l8.6,0l4.3,6.6l4.3-6.6l8.6,0l-8.5,12.7l9.9,14.6l-8.7,0l-5.6-8.6l-5.5,8.6l-8.7,0
		l9.8-14.7L97.2,43.8z M61.6,58.2c0-7.9,6.4-14.5,14.3-14.5c7.9,0,12.2,2.4,14.4,3.5l-3.4,10.4c-2.1-1.5-5.3-3.3-8.5-3.3
		c-2.1,0-3.8,1.5-3.8,3.1c0,4.7,19.3,5.2,19.3,19.7c0,8.7-4.8,15.9-17,15.9c-7,0-12.4-2.3-17-5.2L65,78c2.8,2,7.4,4.4,10.6,4.4
		c3.3,0,5.5-1.3,5.5-4.1C81.1,71.7,61.6,72.8,61.6,58.2z"/>
	<path class="st0" d="M180.7,48.1c-4,6.1-8.8,12.9-14.5,19.6c-18.6,23.2-47.2,45.1-66.2,52.1c-12.9,6.5-39,10.7-63.7,5.5
		c2.9,11.8,16.3,20.7,32.5,20.7c12.8,0,23.9-5.6,29.4-13.8c9.2,8.4,23.7,12.5,38.9,9.8c18.5-3.3,32.5-15.6,36-30
		c0.7,0,1.3,0.1,2,0.1c17.6,0,31.8-14.4,31.8-32.3C206.8,64,195.5,50.9,180.7,48.1z"/>
</g>
</svg>
