<?xml version="1.0" encoding="utf-8"?>
<!-- Generator: Adobe Illustrator 19.2.1, SVG Export Plug-In . SVG Version: 6.00 Build 0)  -->
<svg version="1.1" id="Layer_1" xmlns="http://www.w3.org/2000/svg" xmlns:xlink="http://www.w3.org/1999/xlink" x="0px" y="0px"
	 viewBox="0 0 302.7 213.6" style="enable-background:new 0 0 302.7 213.6;" xml:space="preserve">
<style type="text/css">
	.st0{fill:#F7F7F7;}
	.st1{fill:#E74C3C;}
	.st2{fill:#7F8C8D;}
	.st3{fill:#FFFFFF;}
	.st4{fill:#F0F0F0;}
	.st5{fill:#34495E;}
	.st6{fill:#F39C13;}
	.st7{fill:#ECF0F1;}
	.st8{fill:#F1C411;}
	.st9{fill:#F2F2F2;}
	.st10{fill:#FEC00F;}
	.st11{fill:#D1ECFB;}
	.st12{fill:#2C3E50;}
	.st13{font-family:'Helvetica-Bold';}
	.st14{font-size:12px;}
</style>
<g>
	<rect class="st0" width="302.7" height="213.6"/>
	<rect x="291.5" y="3.2" class="st1" width="7" height="7"/>
	<rect x="281.2" y="3.2" class="st2" width="7" height="7"/>
	<rect y="13" class="st3" width="302.7" height="200.6"/>
	<rect y="13" class="st4" width="302.7" height="24"/>
	<rect y="37" class="st5" width="81.3" height="176.6"/>
	<g>
		<path class="st6" d="M132.7,82.7c0,4.8-6.3,4.8-6.3,0V54.6h5.3c0.5,0,1,0.4,1,1V82.7z"/>
		<g>
			<path class="st7" d="M128.5,82.1c0,0.6-0.5,1.2-1.2,1.2H99.8V51.2c0-0.4,0.4-0.8,0.9-0.8h26.7c0.5,0,1.1,0.2,1.1,0.8V82.1z"/>
		</g>
		<path class="st8" d="M130.1,86.3c-1.6,0-3.3-1.1-3.7-3.4l-3.5-20.6c-0.1-0.5-0.5-0.8-0.9-0.8l-7.5,0h-3.9l-0.8-2.9
			c-0.2-0.8-1.3-1.4-2.2-1.4H94.8c-0.6,0-1.1,0.2-1.5,0.7c-0.4,0.4-0.5,1-0.5,1.5l3.7,22.4c0.4,2.5,2.2,4.5,3.9,4.5l16,0l2.2,0
			L130.1,86.3L130.1,86.3z"/>
	</g>
	<g>
		<path class="st6" d="M184,82.7c0,4.8-6.3,4.8-6.3,0V54.6h5.3c0.5,0,1,0.4,1,1V82.7z"/>
		<g>
			<path class="st7" d="M179.8,82.1c0,0.6-0.5,1.2-1.2,1.2h-27.6V51.2c0-0.4,0.4-0.8,0.9-0.8h26.7c0.5,0,1.1,0.2,1.1,0.8V82.1z"/>
		</g>
		<path class="st8" d="M181.4,86.3c-1.6,0-3.3-1.1-3.7-3.4l-3.5-20.6c-0.1-0.5-0.5-0.8-0.9-0.8l-7.5,0h-3.9l-0.8-2.9
			c-0.2-0.8-1.3-1.4-2.2-1.4h-12.8c-0.6,0-1.1,0.2-1.5,0.7c-0.4,0.4-0.5,1-0.5,1.5l3.7,22.4c0.4,2.5,2.2,4.5,3.9,4.5l16,0l2.2,0
			L181.4,86.3L181.4,86.3z"/>
	</g>
	<g>
		<path class="st6" d="M235.4,82.7c0,4.8-6.3,4.8-6.3,0V54.6h5.3c0.5,0,1,0.4,1,1V82.7z"/>
		<g>
			<path class="st7" d="M231.1,82.1c0,0.6-0.5,1.2-1.2,1.2h-27.6V51.2c0-0.4,0.4-0.8,0.9-0.8H230c0.5,0,1.1,0.2,1.1,0.8V82.1z"/>
		</g>
		<path class="st8" d="M232.8,86.3c-1.6,0-3.3-1.1-3.7-3.4l-3.5-20.6c-0.1-0.5-0.5-0.8-0.9-0.8l-7.5,0h-3.9l-0.8-2.9
			c-0.2-0.8-1.3-1.4-2.2-1.4h-12.8c-0.6,0-1.1,0.2-1.5,0.7c-0.4,0.4-0.5,1-0.5,1.5l3.7,22.4c0.4,2.5,2.2,4.5,3.9,4.5l16,0l2.2,0
			L232.8,86.3L232.8,86.3z"/>
	</g>
	<g>
		<path class="st6" d="M132.7,135.6c0,4.8-6.3,4.8-6.3,0v-28.1h5.3c0.5,0,1,0.4,1,1V135.6z"/>
		<g>
			<path class="st7" d="M128.5,135c0,0.6-0.5,1.2-1.2,1.2H99.8v-32.1c0-0.4,0.4-0.8,0.9-0.8h26.7c0.5,0,1.1,0.2,1.1,0.8V135z"/>
		</g>
		<path class="st8" d="M130.1,139.2c-1.6,0-3.3-1.1-3.7-3.4l-3.5-20.6c-0.1-0.5-0.5-0.8-0.9-0.8l-7.5,0h-3.9l-0.8-2.9
			c-0.2-0.8-1.3-1.4-2.2-1.4H94.8c-0.6,0-1.1,0.2-1.5,0.7c-0.4,0.4-0.5,1-0.5,1.5l3.7,22.4c0.4,2.5,2.2,4.5,3.9,4.5l16,0l2.2,0
			L130.1,139.2L130.1,139.2z"/>
	</g>
	<g>
		<path class="st6" d="M184,135.6c0,4.8-6.3,4.8-6.3,0v-28.1h5.3c0.5,0,1,0.4,1,1V135.6z"/>
		<g>
			<path class="st7" d="M179.8,135c0,0.6-0.5,1.2-1.2,1.2h-27.6v-32.1c0-0.4,0.4-0.8,0.9-0.8h26.7c0.5,0,1.1,0.2,1.1,0.8V135z"/>
		</g>
		<path class="st8" d="M181.4,139.2c-1.6,0-3.3-1.1-3.7-3.4l-3.5-20.6c-0.1-0.5-0.5-0.8-0.9-0.8l-7.5,0h-3.9l-0.8-2.9
			c-0.2-0.8-1.3-1.4-2.2-1.4h-12.8c-0.6,0-1.1,0.2-1.5,0.7c-0.4,0.4-0.5,1-0.5,1.5l3.7,22.4c0.4,2.5,2.2,4.5,3.9,4.5l16,0l2.2,0
			L181.4,139.2L181.4,139.2z"/>
	</g>
	<g>
		<path class="st6" d="M235.4,135.6c0,4.8-6.3,4.8-6.3,0v-28.1h5.3c0.5,0,1,0.4,1,1V135.6z"/>
		<g>
			<path class="st7" d="M231.1,135c0,0.6-0.5,1.2-1.2,1.2h-27.6v-32.1c0-0.4,0.4-0.8,0.9-0.8H230c0.5,0,1.1,0.2,1.1,0.8V135z"/>
		</g>
		<path class="st8" d="M232.8,139.2c-1.6,0-3.3-1.1-3.7-3.4l-3.5-20.6c-0.1-0.5-0.5-0.8-0.9-0.8l-7.5,0h-3.9l-0.8-2.9
			c-0.2-0.8-1.3-1.4-2.2-1.4h-12.8c-0.6,0-1.1,0.2-1.5,0.7c-0.4,0.4-0.5,1-0.5,1.5l3.7,22.4c0.4,2.5,2.2,4.5,3.9,4.5l16,0l2.2,0
			L232.8,139.2L232.8,139.2z"/>
	</g>
	<g>
		<path class="st6" d="M286.7,82.7c0,4.8-6.3,4.8-6.3,0V54.6h5.3c0.5,0,1,0.4,1,1V82.7z"/>
		<g>
			<path class="st7" d="M282.5,82.1c0,0.6-0.5,1.2-1.2,1.2h-27.6V51.2c0-0.4,0.4-0.8,0.9-0.8h26.7c0.5,0,1.1,0.2,1.1,0.8V82.1z"/>
		</g>
		<path class="st8" d="M284.1,86.3c-1.6,0-3.3-1.1-3.7-3.4l-3.5-20.6c-0.1-0.5-0.5-0.8-0.9-0.8l-7.5,0h-3.9l-0.8-2.9
			c-0.2-0.8-1.3-1.4-2.2-1.4h-12.8c-0.6,0-1.1,0.2-1.5,0.7c-0.4,0.4-0.5,1-0.5,1.5l3.7,22.4c0.4,2.5,2.2,4.5,3.9,4.5l16,0l2.2,0
			L284.1,86.3L284.1,86.3z"/>
	</g>
	<g>
		<g>
			<g>
				<g>
					<g>
						<g>
							<polygon class="st9" points="253.6,140.3 253.6,121.1 253.6,111.4 260.5,104.5 279.9,104.5 279.9,111.6 279.9,121.1 
								279.9,140.3 							"/>
							<g>
								<polygon class="st10" points="260.5,111.4 253.6,111.4 260.5,104.5 								"/>
								<polygon class="st11" points="253.6,111.4 260.5,111.4 253.6,118.3 								"/>
							</g>
						</g>
					</g>
				</g>
			</g>
		</g>
		<g>
			<rect x="259.5" y="117.3" class="st12" width="14.5" height="2.1"/>
			<rect x="259.5" y="123.8" class="st12" width="14.5" height="2.1"/>
			<rect x="259.5" y="130.2" class="st12" width="14.5" height="2.1"/>
		</g>
	</g>
	<g>
		<g>
			<g>
				<g>
					<g>
						<g>
							<polygon class="st9" points="99.6,192.2 99.6,172.9 99.6,163.2 106.6,156.3 125.9,156.3 125.9,163.5 125.9,172.9 
								125.9,192.2 							"/>
							<g>
								<polygon class="st10" points="106.6,163.2 99.6,163.2 106.6,156.3 								"/>
								<polygon class="st11" points="99.6,163.2 106.6,163.2 99.6,170.2 								"/>
							</g>
						</g>
					</g>
				</g>
			</g>
		</g>
		<g>
			<rect x="105.5" y="169.2" class="st12" width="14.5" height="2.1"/>
			<rect x="105.5" y="175.6" class="st12" width="14.5" height="2.1"/>
			<rect x="105.5" y="182.1" class="st12" width="14.5" height="2.1"/>
		</g>
	</g>
	<g>
		<g>
			<g>
				<g>
					<g>
						<g>
							<polygon class="st9" points="151,192.2 151,172.9 151,163.2 157.9,156.3 177.2,156.3 177.2,163.5 177.2,172.9 177.2,192.2 
															"/>
							<g>
								<polygon class="st10" points="157.9,163.2 151,163.2 157.9,156.3 								"/>
								<polygon class="st11" points="151,163.2 157.9,163.2 151,170.2 								"/>
							</g>
						</g>
					</g>
				</g>
			</g>
		</g>
		<g>
			<rect x="156.9" y="169.2" class="st12" width="14.5" height="2.1"/>
			<rect x="156.9" y="175.6" class="st12" width="14.5" height="2.1"/>
			<rect x="156.9" y="182.1" class="st12" width="14.5" height="2.1"/>
		</g>
	</g>
	<g>
		<g>
			<g>
				<g>
					<g>
						<g>
							<polygon class="st9" points="202.3,192.2 202.3,172.9 202.3,163.2 209.2,156.3 228.5,156.3 228.5,163.5 228.5,172.9 
								228.5,192.2 							"/>
							<g>
								<polygon class="st10" points="209.2,163.2 202.3,163.2 209.2,156.3 								"/>
								<polygon class="st11" points="202.3,163.2 209.2,163.2 202.3,170.2 								"/>
							</g>
						</g>
					</g>
				</g>
			</g>
		</g>
		<g>
			<rect x="208.2" y="169.2" class="st12" width="14.5" height="2.1"/>
			<rect x="208.2" y="175.6" class="st12" width="14.5" height="2.1"/>
			<rect x="208.2" y="182.1" class="st12" width="14.5" height="2.1"/>
		</g>
	</g>
	<g>
		<g>
			<g>
				<g>
					<g>
						<g>
							<polygon class="st9" points="253.6,192.2 253.6,172.9 253.6,163.2 260.5,156.3 279.9,156.3 279.9,163.5 279.9,172.9 
								279.9,192.2 							"/>
							<g>
								<polygon class="st10" points="260.5,163.2 253.6,163.2 260.5,156.3 								"/>
								<polygon class="st11" points="253.6,163.2 260.5,163.2 253.6,170.2 								"/>
							</g>
						</g>
					</g>
				</g>
			</g>
		</g>
		<g>
			<rect x="259.5" y="169.2" class="st12" width="14.5" height="2.1"/>
			<rect x="259.5" y="175.6" class="st12" width="14.5" height="2.1"/>
			<rect x="259.5" y="182.1" class="st12" width="14.5" height="2.1"/>
		</g>
	</g>
	<rect x="295" y="37" class="st3" width="7.8" height="176.6"/>
	<rect x="8.2" y="19.2" class="st5" width="29.6" height="11.2"/>
	<rect x="50" y="19.2" class="st5" width="29.6" height="11.2"/>
	<rect x="91.8" y="19.2" class="st5" width="29.6" height="11.2"/>
	<rect x="133.6" y="19.2" class="st5" width="29.6" height="11.2"/>
	<rect x="175.4" y="19.2" class="st5" width="29.6" height="11.2"/>
	<g>
		<g>
			<path class="st3" d="M19.6,58.8c3.3-0.7,8.3-4.8,11.5-8l0,0c0-1.5-0.8-2.8-2.1-3.5c-1.1-0.6-2.4-0.6-3.5-0.2
				c-1.2-1.8-3.4-2.9-6-2.9c-3.6,0-6.5,2.3-6.9,5.2c-0.2,0-0.4,0-0.6,0c-2.9,0-5.3,2.4-5.3,5.4c0,2.1,1.2,4,3,4.8
				C13.4,60.6,17.5,59.8,19.6,58.8z M20.3,50.3h1.2l0.6,0.9l0.6-0.9h1.2l-1.2,1.8l1.4,2h-1.2l-0.8-1.2l-0.8,1.2h-1.2l1.4-2.1
				L20.3,50.3z M15.4,52.3c0-1.1,0.9-2,2-2c1.1,0,1.7,0.3,2,0.5l-0.5,1.5c-0.3-0.2-0.7-0.5-1.2-0.5c-0.3,0-0.5,0.2-0.5,0.4
				c0,0.7,2.7,0.7,2.7,2.7c0,1.2-0.7,2.2-2.4,2.2c-1,0-1.7-0.3-2.4-0.7l0.7-1.4c0.4,0.3,1,0.6,1.5,0.6c0.5,0,0.8-0.2,0.8-0.6
				C18.1,54.2,15.4,54.4,15.4,52.3z"/>
			<path class="st3" d="M32,50.9c-0.6,0.9-1.2,1.8-2,2.7c-2.6,3.2-6.6,6.3-9.2,7.3c-1.8,0.9-5.4,1.5-8.9,0.8
				c0.4,1.6,2.3,2.9,4.5,2.9c1.8,0,3.3-0.8,4.1-1.9c1.3,1.2,3.3,1.7,5.4,1.4c2.6-0.5,4.5-2.2,5-4.2c0.1,0,0.2,0,0.3,0
				c2.5,0,4.4-2,4.4-4.5C35.6,53.1,34,51.3,32,50.9z"/>
		</g>
		<text transform="matrix(1 0 0 1 39.2724 58.6346)" class="st3 st13 st14">Scout</text>
	</g>
	<g>
		<g>
			<path class="st3" d="M17.8,82.8c0,1.3-1.7,1.3-1.7,0v-7.6h1.4c0.1,0,0.3,0.1,0.3,0.3V82.8z"/>
			<g>
				<path class="st7" d="M16.7,82.7c0,0.2-0.1,0.3-0.3,0.3H9v-8.6c0-0.1,0.1-0.2,0.2-0.2h7.2c0.1,0,0.3,0,0.3,0.2V82.7z"/>
			</g>
			<path class="st3" d="M17.1,83.8c-0.4,0-0.9-0.3-1-0.9l-0.9-5.6c0-0.1-0.1-0.2-0.3-0.2l-2,0h-1l-0.2-0.8c-0.1-0.2-0.3-0.4-0.6-0.4
				H7.6c-0.2,0-0.3,0.1-0.4,0.2c-0.1,0.1-0.1,0.3-0.1,0.4l1,6c0.1,0.7,0.6,1.2,1,1.2l4.3,0l0.6,0L17.1,83.8L17.1,83.8z"/>
		</g>
		<rect x="21.8" y="77.9" class="st3" width="52.4" height="2.1"/>
	</g>
	<g>
		<g>
			<path class="st3" d="M17.8,101.3c0,1.3-1.7,1.3-1.7,0v-7.6h1.4c0.1,0,0.3,0.1,0.3,0.3V101.3z"/>
			<g>
				<path class="st7" d="M16.7,101.1c0,0.2-0.1,0.3-0.3,0.3H9v-8.6c0-0.1,0.1-0.2,0.2-0.2h7.2c0.1,0,0.3,0,0.3,0.2V101.1z"/>
			</g>
			<path class="st3" d="M17.1,102.3c-0.4,0-0.9-0.3-1-0.9l-0.9-5.6c0-0.1-0.1-0.2-0.3-0.2l-2,0h-1l-0.2-0.8
				c-0.1-0.2-0.3-0.4-0.6-0.4H7.6c-0.2,0-0.3,0.1-0.4,0.2c-0.1,0.1-0.1,0.3-0.1,0.4l1,6c0.1,0.7,0.6,1.2,1,1.2l4.3,0l0.6,0
				L17.1,102.3L17.1,102.3z"/>
		</g>
		<rect x="21.8" y="96.4" class="st3" width="52.4" height="2.1"/>
	</g>
	<g>
		<g>
			<path class="st3" d="M17.8,119.8c0,1.3-1.7,1.3-1.7,0v-7.6h1.4c0.1,0,0.3,0.1,0.3,0.3V119.8z"/>
			<g>
				<path class="st7" d="M16.7,119.6c0,0.2-0.1,0.3-0.3,0.3H9v-8.6c0-0.1,0.1-0.2,0.2-0.2h7.2c0.1,0,0.3,0,0.3,0.2V119.6z"/>
			</g>
			<path class="st3" d="M17.1,120.7c-0.4,0-0.9-0.3-1-0.9l-0.9-5.6c0-0.1-0.1-0.2-0.3-0.2l-2,0h-1l-0.2-0.8
				c-0.1-0.2-0.3-0.4-0.6-0.4H7.6c-0.2,0-0.3,0.1-0.4,0.2c-0.1,0.1-0.1,0.3-0.1,0.4l1,6c0.1,0.7,0.6,1.2,1,1.2l4.3,0l0.6,0
				L17.1,120.7L17.1,120.7z"/>
		</g>
		<rect x="21.8" y="114.9" class="st3" width="52.4" height="2.1"/>
	</g>
	<g>
		<g>
			<path class="st3" d="M17.8,138.2c0,1.3-1.7,1.3-1.7,0v-7.6h1.4c0.1,0,0.3,0.1,0.3,0.3V138.2z"/>
			<g>
				<path class="st7" d="M16.7,138.1c0,0.2-0.1,0.3-0.3,0.3H9v-8.6c0-0.1,0.1-0.2,0.2-0.2h7.2c0.1,0,0.3,0,0.3,0.2V138.1z"/>
			</g>
			<path class="st3" d="M17.1,139.2c-0.4,0-0.9-0.3-1-0.9l-0.9-5.6c0-0.1-0.1-0.2-0.3-0.2l-2,0h-1l-0.2-0.8
				c-0.1-0.2-0.3-0.4-0.6-0.4H7.6c-0.2,0-0.3,0.1-0.4,0.2c-0.1,0.1-0.1,0.3-0.1,0.4l1,6c0.1,0.7,0.6,1.2,1,1.2l4.3,0l0.6,0
				L17.1,139.2L17.1,139.2z"/>
		</g>
		<rect x="21.8" y="133.3" class="st3" width="52.4" height="2.1"/>
	</g>
</g>
</svg>
