<?xml version="1.0" encoding="utf-8"?>
<!-- Generator: Adobe Illustrator 19.2.1, SVG Export Plug-In . SVG Version: 6.00 Build 0)  -->
<svg version="1.1" id="Layer_1" xmlns="http://www.w3.org/2000/svg" xmlns:xlink="http://www.w3.org/1999/xlink" x="0px" y="0px"
	 viewBox="0 0 142 142" style="enable-background:new 0 0 142 142;" xml:space="preserve">
<style type="text/css">
	.st0{fill:#34495E;}
	.st1{fill:#B2B2B2;}
	.st2{fill:#3498DB;}
	.st3{fill:#F39C13;}
	.st4{fill:#ECF0F1;}
	.st5{fill:#F1C411;}
</style>
<g>
	<path class="st0" d="M142,71c0,0.1,0,0.3,0,0.4c-0.1,22.6-10.8,42.6-27.3,55.5c-12,9.4-27.2,15.1-43.7,15.1c-2.7,0-5.4-0.2-8-0.5
		c-35.4-4-63-34.1-63-70.5C0,31.8,31.8,0,71,0c35.6,0,65,26.1,70.2,60.2C141.7,63.7,142,67.3,142,71z"/>
	<g>
		<path class="st1" d="M54.5,98.1c0-1.6-0.7-3-1.7-4.1l15.5-22.8c1,0.7,2.2,1,3.5,1c1,0,2-0.3,2.8-0.8l14.7,21.8
			c-1,1.1-1.7,2.6-1.6,4.2c0.1,3.4,2.9,6,6.2,6c3.4-0.1,6.1-2.8,6-6.2c-0.1-3.4-2.9-6-6.2-6c-0.7,0-1.5,0.2-2.1,0.4L76.6,69.6
			c0.7-1,1.2-2.3,1.1-3.6c-0.1-3.4-2.9-6-6.2-6c-3.4,0.1-6.1,2.8-6,6.2c0,1.1,0.3,2.1,0.8,3L50.5,92.5c-0.7-0.3-1.5-0.4-2.3-0.4
			c-3.4,0.1-6.1,2.8-6,6.2c0.1,3.4,2.9,6,6.2,6C51.8,104.2,54.5,101.4,54.5,98.1z"/>
		<path class="st2" d="M70.7,73.2c-3.7,0.1-6.7-2.8-6.8-6.5c-0.1-3.6,2.9-6.6,6.5-6.7c3.7-0.1,6.7,2.8,6.8,6.5
			C77.3,70.1,74.4,73.1,70.7,73.2z"/>
		<path class="st2" d="M92.7,103.7c-3.7,0.1-6.7-2.8-6.8-6.5c-0.1-3.6,2.9-6.6,6.5-6.7c3.7-0.1,6.7,2.8,6.8,6.5
			C99.3,100.6,96.4,103.6,92.7,103.7z"/>
		
			<ellipse transform="matrix(0.9998 -1.801928e-02 1.801928e-02 0.9998 -1.7606 0.8715)" class="st2" cx="47.5" cy="98.1" rx="6.6" ry="6.6"/>
		<path class="st1" d="M87.5,41.1c0,1.6,0.7,3,1.7,4.1L73.8,68c-1-0.7-2.2-1-3.5-1c-1,0-2,0.3-2.8,0.8L52.7,45.9
			c1-1.1,1.7-2.6,1.6-4.2c-0.1-3.4-2.9-6-6.2-6c-3.4,0.1-6.1,2.8-6,6.2c0.1,3.4,2.9,6,6.2,6c0.7,0,1.5-0.2,2.1-0.4l14.9,22.1
			c-0.7,1-1.2,2.3-1.1,3.6c0.1,3.4,2.9,6,6.2,6c3.4-0.1,6.1-2.8,6-6.2c0-1.1-0.3-2.1-0.8-3l15.8-23.3c0.7,0.3,1.5,0.4,2.3,0.4
			c3.4-0.1,6.1-2.8,6-6.2c-0.1-3.4-2.9-6-6.2-6C90.2,34.9,87.5,37.7,87.5,41.1z"/>
		<path class="st2" d="M48.3,35.5c3.7-0.1,6.7,2.8,6.8,6.5c0.1,3.6-2.9,6.6-6.5,6.7c-3.7,0.1-6.7-2.8-6.8-6.5
			C41.7,38.5,44.7,35.5,48.3,35.5z"/>
		
			<ellipse transform="matrix(0.9998 -1.801928e-02 1.801928e-02 0.9998 -0.7237 1.6925)" class="st2" cx="93.6" cy="41" rx="6.6" ry="6.6"/>
		<g>
			<path class="st3" d="M107.5,51c0,3.3-4.4,3.3-4.4,0V31.4h3.7c0.4,0,0.7,0.3,0.7,0.7V51z"/>
			<g>
				<path class="st4" d="M104.5,50.6c0,0.4-0.4,0.8-0.8,0.8H84.5V29c0-0.3,0.3-0.5,0.6-0.5h18.6c0.3,0,0.8,0.1,0.8,0.5V50.6z"/>
			</g>
			<path class="st5" d="M105.7,53.5c-1.1,0-2.3-0.8-2.6-2.4l-2.4-14.4c-0.1-0.3-0.3-0.6-0.7-0.6l-5.3,0H92l-0.6-2
				c-0.2-0.6-0.9-1-1.5-1H81c-0.4,0-0.8,0.2-1,0.5c-0.3,0.3-0.4,0.7-0.3,1.1l2.6,15.6c0.3,1.7,1.5,3.2,2.7,3.2l11.2,0l1.6,0
				L105.7,53.5L105.7,53.5z"/>
		</g>
		<g>
			<path class="st3" d="M62.3,52c0,3.3-4.4,3.3-4.4,0V32.5h3.7c0.4,0,0.7,0.3,0.7,0.7V52z"/>
			<g>
				<path class="st4" d="M59.4,51.7c0,0.4-0.4,0.8-0.8,0.8H39.4V30.1c0-0.3,0.3-0.5,0.6-0.5h18.6c0.3,0,0.8,0.1,0.8,0.5V51.7z"/>
			</g>
			<path class="st5" d="M60.5,54.6c-1.1,0-2.3-0.8-2.6-2.4l-2.4-14.4c-0.1-0.3-0.3-0.6-0.7-0.6l-5.3,0h-2.7l-0.6-2
				c-0.2-0.6-0.9-1-1.5-1h-8.9c-0.4,0-0.8,0.2-1,0.5c-0.3,0.3-0.4,0.7-0.3,1.1l2.6,15.6c0.3,1.7,1.5,3.2,2.7,3.2l11.2,0l1.6,0
				L60.5,54.6L60.5,54.6z"/>
		</g>
		<g>
			<path class="st3" d="M62.3,111c0,3.3-4.4,3.3-4.4,0V91.4h3.7c0.4,0,0.7,0.3,0.7,0.7V111z"/>
			<g>
				<path class="st4" d="M59.4,110.6c0,0.4-0.4,0.8-0.8,0.8H39.4V89c0-0.3,0.3-0.5,0.6-0.5h18.6c0.3,0,0.8,0.1,0.8,0.5V110.6z"/>
			</g>
			<path class="st5" d="M60.5,113.5c-1.1,0-2.3-0.8-2.6-2.4l-2.4-14.4c-0.1-0.3-0.3-0.6-0.7-0.6l-5.3,0h-2.7l-0.6-2
				c-0.2-0.6-0.9-1-1.5-1h-8.9c-0.4,0-0.8,0.2-1,0.5c-0.3,0.3-0.4,0.7-0.3,1.1l2.6,15.6c0.3,1.7,1.5,3.2,2.7,3.2l11.2,0l1.6,0
				L60.5,113.5L60.5,113.5z"/>
		</g>
		<g>
			<path class="st3" d="M83.9,82c0,3.3-4.4,3.3-4.4,0V62.5h3.7c0.4,0,0.7,0.3,0.7,0.7V82z"/>
			<g>
				<path class="st4" d="M81,81.6c0,0.4-0.4,0.8-0.8,0.8H61V60.1c0-0.3,0.3-0.5,0.6-0.5h18.6c0.3,0,0.8,0.1,0.8,0.5V81.6z"/>
			</g>
			<path class="st5" d="M82.1,84.6c-1.1,0-2.3-0.8-2.6-2.4l-2.4-14.4c-0.1-0.3-0.3-0.6-0.7-0.6l-5.3,0h-2.7l-0.6-2
				c-0.2-0.6-0.9-1-1.5-1h-8.9c-0.4,0-0.8,0.2-1,0.5c-0.3,0.3-0.4,0.7-0.3,1.1l2.6,15.6c0.3,1.7,1.5,3.2,2.7,3.2l11.2,0l1.6,0
				L82.1,84.6L82.1,84.6z"/>
		</g>
		<g>
			<path class="st3" d="M107.5,109.9c0,3.3-4.4,3.3-4.4,0V90.3h3.7c0.4,0,0.7,0.3,0.7,0.7V109.9z"/>
			<g>
				<path class="st4" d="M104.5,109.5c0,0.4-0.4,0.8-0.8,0.8H84.5V88c0-0.3,0.3-0.5,0.6-0.5h18.6c0.3,0,0.8,0.1,0.8,0.5V109.5z"/>
			</g>
			<path class="st5" d="M105.7,112.4c-1.1,0-2.3-0.8-2.6-2.4l-2.4-14.4c-0.1-0.3-0.3-0.6-0.7-0.6l-5.3,0H92l-0.6-2
				c-0.2-0.6-0.9-1-1.5-1H81c-0.4,0-0.8,0.2-1,0.5c-0.3,0.3-0.4,0.7-0.3,1.1l2.6,15.6c0.3,1.7,1.5,3.2,2.7,3.2l11.2,0l1.6,0
				L105.7,112.4L105.7,112.4z"/>
		</g>
	</g>
</g>
</svg>
